<svg 
 xmlns="http://www.w3.org/2000/svg"
 xmlns:xlink="http://www.w3.org/1999/xlink"
 width="626px" height="59px">
<path fill-rule="evenodd"  fill="rgb(255, 255, 255)"
 d="M625.329,57.001 C625.109,57.219 624.763,57.374 624.291,57.469 C623.818,57.564 623.121,57.612 622.198,57.612 C621.209,57.612 620.489,57.564 620.039,57.469 C619.588,57.374 619.270,57.219 619.083,57.001 C618.896,56.784 618.803,56.486 618.803,56.106 L618.803,53.217 C617.594,54.818 616.216,56.065 614.667,56.960 C613.118,57.856 611.398,58.303 609.509,58.303 C607.948,58.303 606.515,58.052 605.207,57.550 C603.900,57.049 602.769,56.303 601.813,55.313 C600.857,54.323 600.115,53.095 599.588,51.630 C599.061,50.165 598.797,48.456 598.797,46.503 C598.797,44.387 599.132,42.550 599.802,40.990 C600.472,39.430 601.472,38.141 602.801,37.124 C604.131,36.107 605.784,35.354 607.762,34.866 C609.739,34.377 612.035,34.133 614.650,34.133 L617.518,34.133 L617.518,31.936 C617.518,30.797 617.424,29.800 617.238,28.945 C617.051,28.091 616.743,27.379 616.315,26.809 C615.886,26.239 615.315,25.819 614.601,25.548 C613.887,25.277 613.002,25.141 611.948,25.141 C610.563,25.141 609.327,25.331 608.240,25.710 C607.152,26.091 606.191,26.511 605.356,26.972 C604.520,27.433 603.823,27.854 603.263,28.233 C602.703,28.613 602.246,28.803 601.895,28.803 C601.653,28.803 601.439,28.708 601.252,28.518 C601.065,28.329 600.911,28.057 600.791,27.704 C600.670,27.352 600.577,26.918 600.511,26.402 C600.445,25.887 600.412,25.318 600.412,24.693 C600.412,23.853 600.467,23.188 600.577,22.699 C600.686,22.211 600.895,21.771 601.203,21.377 C601.510,20.984 602.049,20.550 602.818,20.075 C603.587,19.601 604.488,19.159 605.521,18.752 C606.553,18.346 607.679,18.014 608.899,17.756 C610.118,17.498 611.376,17.369 612.673,17.369 C614.980,17.369 616.952,17.647 618.589,18.203 C620.225,18.759 621.572,19.614 622.626,20.767 C623.681,21.920 624.450,23.405 624.933,25.222 C625.416,27.040 625.659,29.196 625.659,31.692 L625.659,56.106 C625.659,56.486 625.548,56.784 625.329,57.001 ZM617.518,40.562 L614.354,40.562 C613.013,40.562 611.870,40.684 610.926,40.929 C609.981,41.173 609.212,41.539 608.619,42.027 C608.025,42.515 607.591,43.106 607.317,43.797 C607.042,44.489 606.905,45.282 606.905,46.178 C606.905,47.697 607.295,48.890 608.075,49.758 C608.855,50.627 609.937,51.060 611.321,51.060 C612.486,51.060 613.557,50.694 614.535,49.962 C615.512,49.229 616.507,48.158 617.518,46.747 L617.518,40.562 ZM589.981,52.647 C588.904,54.465 587.580,55.862 586.010,56.838 C584.438,57.815 582.653,58.303 580.654,58.303 C579.665,58.303 578.742,58.188 577.885,57.957 C577.028,57.727 576.209,57.354 575.430,56.838 C574.649,56.323 573.881,55.672 573.123,54.885 C572.364,54.099 571.590,53.150 570.799,52.037 L570.799,55.984 C570.799,56.283 570.738,56.533 570.618,56.737 C570.497,56.940 570.299,57.110 570.024,57.245 C569.749,57.381 569.382,57.475 568.920,57.530 C568.459,57.584 567.899,57.612 567.239,57.612 C566.558,57.612 565.992,57.584 565.542,57.530 C565.091,57.475 564.729,57.381 564.454,57.245 C564.179,57.110 563.987,56.940 563.878,56.737 C563.767,56.533 563.713,56.283 563.713,55.984 L563.713,2.476 C563.713,2.206 563.779,1.961 563.911,1.744 C564.042,1.527 564.267,1.344 564.586,1.195 C564.904,1.046 565.328,0.930 565.855,0.849 C566.382,0.767 567.052,0.727 567.866,0.727 C568.678,0.727 569.349,0.767 569.876,0.849 C570.403,0.930 570.826,1.046 571.145,1.195 C571.463,1.344 571.689,1.527 571.821,1.744 C571.952,1.961 572.018,2.206 572.018,2.476 L572.018,22.537 C572.765,21.615 573.512,20.828 574.260,20.177 C575.006,19.526 575.754,18.990 576.501,18.569 C577.248,18.149 578.017,17.844 578.808,17.654 C579.599,17.464 580.434,17.369 581.313,17.369 C583.488,17.369 585.334,17.905 586.850,18.976 C588.366,20.048 589.602,21.493 590.558,23.310 C591.514,25.127 592.211,27.250 592.651,29.678 C593.090,32.106 593.310,34.662 593.310,37.348 C593.310,40.576 593.024,43.479 592.453,46.056 C591.881,48.633 591.057,50.830 589.981,52.647 ZM584.427,33.604 C584.241,32.167 583.917,30.892 583.455,29.779 C582.994,28.668 582.395,27.779 581.659,27.114 C580.923,26.450 579.994,26.117 578.874,26.117 C578.324,26.117 577.786,26.213 577.259,26.402 C576.732,26.592 576.188,26.918 575.627,27.379 C575.067,27.840 574.490,28.437 573.897,29.169 C573.304,29.902 572.678,30.811 572.018,31.895 L572.018,43.940 C573.183,45.785 574.298,47.189 575.364,48.151 C576.429,49.114 577.544,49.596 578.709,49.596 C579.785,49.596 580.697,49.257 581.445,48.578 C582.191,47.901 582.812,47.019 583.307,45.933 C583.801,44.849 584.158,43.614 584.378,42.231 C584.597,40.847 584.708,39.464 584.708,38.080 C584.708,36.534 584.614,35.043 584.427,33.604 ZM552.491,52.525 C551.150,54.370 549.469,55.794 547.448,56.798 C545.426,57.801 543.065,58.303 540.362,58.303 C537.747,58.303 535.473,57.856 533.539,56.960 C531.606,56.065 530.002,54.763 528.727,53.054 C527.453,51.345 526.508,49.243 525.893,46.747 C525.278,44.252 524.970,41.404 524.970,38.202 C524.970,35.110 525.305,32.282 525.975,29.718 C526.645,27.155 527.651,24.958 528.991,23.127 C530.331,21.296 532.007,19.878 534.017,18.875 C536.028,17.871 538.384,17.369 541.087,17.369 C543.724,17.369 546.009,17.810 547.943,18.691 C549.876,19.573 551.474,20.868 552.738,22.577 C554.001,24.286 554.941,26.389 555.556,28.884 C556.171,31.380 556.479,34.242 556.479,37.470 C556.479,40.562 556.149,43.384 555.490,45.933 C554.831,48.484 553.831,50.681 552.491,52.525 ZM547.596,32.933 C547.366,31.427 546.975,30.119 546.426,29.006 C545.877,27.894 545.146,27.027 544.235,26.402 C543.323,25.779 542.175,25.466 540.790,25.466 C539.560,25.466 538.483,25.745 537.560,26.300 C536.638,26.857 535.880,27.671 535.286,28.742 C534.693,29.814 534.248,31.102 533.951,32.607 C533.655,34.113 533.507,35.829 533.507,37.755 C533.507,39.545 533.627,41.193 533.869,42.699 C534.111,44.204 534.500,45.513 535.039,46.625 C535.577,47.738 536.308,48.599 537.231,49.209 C538.154,49.819 539.296,50.125 540.659,50.125 C541.911,50.125 542.999,49.847 543.922,49.290 C544.844,48.735 545.602,47.927 546.196,46.869 C546.789,45.811 547.228,44.530 547.514,43.024 C547.799,41.519 547.943,39.803 547.943,37.877 C547.943,36.086 547.827,34.439 547.596,32.933 ZM521.527,26.931 C521.439,27.284 521.323,27.528 521.181,27.664 C521.037,27.800 520.856,27.867 520.637,27.867 C520.461,27.867 520.263,27.820 520.043,27.725 C519.824,27.630 519.576,27.528 519.302,27.419 C519.027,27.311 518.725,27.210 518.395,27.114 C518.066,27.020 517.703,26.972 517.308,26.972 C516.846,26.972 516.385,27.088 515.924,27.318 C515.462,27.549 514.984,27.908 514.490,28.396 C513.995,28.884 513.479,29.535 512.941,30.349 C512.402,31.163 511.825,32.167 511.210,33.360 L511.210,55.984 C511.210,56.255 511.145,56.493 511.013,56.696 C510.881,56.899 510.655,57.069 510.337,57.205 C510.018,57.341 509.595,57.442 509.068,57.510 C508.541,57.577 507.870,57.612 507.058,57.612 C506.244,57.612 505.574,57.577 505.047,57.510 C504.520,57.442 504.096,57.341 503.778,57.205 C503.459,57.069 503.234,56.899 503.103,56.696 C502.971,56.493 502.905,56.255 502.905,55.984 L502.905,19.688 C502.905,19.418 502.959,19.180 503.070,18.976 C503.179,18.773 503.377,18.604 503.663,18.468 C503.948,18.332 504.316,18.230 504.767,18.162 C505.217,18.095 505.783,18.061 506.464,18.061 C507.167,18.061 507.750,18.095 508.211,18.162 C508.673,18.230 509.029,18.332 509.282,18.468 C509.535,18.604 509.716,18.773 509.826,18.976 C509.936,19.180 509.991,19.418 509.991,19.688 L509.991,24.205 C510.760,22.849 511.485,21.730 512.166,20.848 C512.847,19.967 513.495,19.268 514.111,18.752 C514.726,18.237 515.341,17.878 515.957,17.674 C516.571,17.471 517.187,17.369 517.802,17.369 C518.088,17.369 518.395,17.389 518.725,17.430 C519.055,17.471 519.395,17.539 519.747,17.633 C520.098,17.729 520.406,17.837 520.670,17.959 C520.933,18.081 521.125,18.210 521.246,18.346 C521.367,18.482 521.455,18.630 521.510,18.793 C521.565,18.956 521.614,19.180 521.658,19.465 C521.702,19.749 521.735,20.177 521.757,20.746 C521.779,21.316 521.790,22.089 521.790,23.066 C521.790,24.042 521.768,24.843 521.724,25.466 C521.680,26.091 521.614,26.579 521.527,26.931 ZM492.589,57.469 C492.116,57.564 491.419,57.612 490.496,57.612 C489.508,57.612 488.788,57.564 488.338,57.469 C487.887,57.374 487.568,57.219 487.382,57.001 C487.195,56.784 487.102,56.486 487.102,56.106 L487.102,53.217 C485.893,54.818 484.514,56.065 482.965,56.960 C481.416,57.856 479.697,58.303 477.807,58.303 C476.247,58.303 474.813,58.052 473.506,57.550 C472.198,57.049 471.067,56.303 470.111,55.313 C469.155,54.323 468.414,53.095 467.886,51.630 C467.359,50.165 467.095,48.456 467.095,46.503 C467.095,44.387 467.430,42.550 468.101,40.990 C468.771,39.430 469.770,38.141 471.100,37.124 C472.429,36.107 474.083,35.354 476.060,34.866 C478.038,34.377 480.334,34.133 482.949,34.133 L485.816,34.133 L485.816,31.936 C485.816,30.797 485.722,29.800 485.536,28.945 C485.349,28.091 485.042,27.379 484.613,26.809 C484.185,26.239 483.613,25.819 482.899,25.548 C482.185,25.277 481.301,25.141 480.246,25.141 C478.862,25.141 477.626,25.331 476.538,25.710 C475.451,26.091 474.489,26.511 473.654,26.972 C472.819,27.433 472.122,27.854 471.561,28.233 C471.001,28.613 470.545,28.803 470.194,28.803 C469.952,28.803 469.737,28.708 469.551,28.518 C469.364,28.329 469.210,28.057 469.089,27.704 C468.968,27.352 468.875,26.918 468.809,26.402 C468.743,25.887 468.710,25.318 468.710,24.693 C468.710,23.853 468.765,23.188 468.875,22.699 C468.985,22.211 469.194,21.771 469.501,21.377 C469.809,20.984 470.347,20.550 471.116,20.075 C471.885,19.601 472.786,19.159 473.819,18.752 C474.852,18.346 475.978,18.014 477.197,17.756 C478.417,17.498 479.674,17.369 480.971,17.369 C483.278,17.369 485.250,17.647 486.887,18.203 C488.524,18.759 489.870,19.614 490.925,20.767 C491.980,21.920 492.748,23.405 493.232,25.222 C493.715,27.040 493.957,29.196 493.957,31.692 L493.957,56.106 C493.957,56.486 493.847,56.784 493.627,57.001 C493.408,57.219 493.061,57.374 492.589,57.469 ZM485.816,40.562 L482.652,40.562 C481.312,40.562 480.169,40.684 479.224,40.929 C478.279,41.173 477.511,41.539 476.917,42.027 C476.324,42.515 475.890,43.106 475.615,43.797 C475.340,44.489 475.203,45.282 475.203,46.178 C475.203,47.697 475.593,48.890 476.373,49.758 C477.153,50.627 478.236,51.060 479.620,51.060 C480.784,51.060 481.855,50.694 482.833,49.962 C483.811,49.229 484.805,48.158 485.816,46.747 L485.816,40.562 ZM455.940,48.110 C456.445,49.101 457.345,49.596 458.642,49.596 C459.081,49.596 459.477,49.549 459.829,49.453 C460.180,49.358 460.493,49.250 460.768,49.128 C461.042,49.006 461.273,48.897 461.460,48.802 C461.647,48.707 461.817,48.660 461.971,48.660 C462.103,48.660 462.229,48.707 462.350,48.802 C462.471,48.897 462.564,49.087 462.630,49.372 C462.696,49.657 462.756,50.043 462.811,50.531 C462.866,51.020 462.894,51.644 462.894,52.403 C462.894,53.597 462.833,54.513 462.713,55.150 C462.592,55.787 462.432,56.235 462.235,56.493 C462.037,56.751 461.745,56.981 461.361,57.184 C460.977,57.388 460.526,57.564 460.010,57.713 C459.493,57.862 458.933,57.978 458.329,58.059 C457.724,58.140 457.115,58.181 456.500,58.181 C454.852,58.181 453.423,57.923 452.215,57.408 C451.006,56.893 450.007,56.100 449.216,55.028 C448.425,53.956 447.842,52.607 447.469,50.979 C447.095,49.351 446.909,47.426 446.909,45.201 L446.909,26.606 L443.382,26.606 C442.964,26.606 442.646,26.287 442.426,25.649 C442.206,25.012 442.097,23.947 442.097,22.455 C442.097,21.669 442.124,21.004 442.179,20.461 C442.234,19.919 442.316,19.492 442.426,19.180 C442.536,18.868 442.674,18.644 442.838,18.508 C443.003,18.373 443.195,18.305 443.415,18.305 L446.909,18.305 L446.909,10.208 C446.909,9.937 446.969,9.693 447.090,9.475 C447.211,9.258 447.430,9.075 447.749,8.926 C448.067,8.777 448.496,8.668 449.035,8.600 C449.573,8.533 450.238,8.499 451.029,8.499 C451.841,8.499 452.517,8.533 453.056,8.600 C453.594,8.668 454.017,8.777 454.325,8.926 C454.632,9.075 454.852,9.258 454.984,9.475 C455.116,9.693 455.181,9.937 455.181,10.208 L455.181,18.305 L461.576,18.305 C461.795,18.305 461.987,18.373 462.152,18.508 C462.317,18.644 462.454,18.868 462.564,19.180 C462.674,19.492 462.756,19.919 462.811,20.461 C462.866,21.004 462.894,21.669 462.894,22.455 C462.894,23.947 462.784,25.012 462.564,25.649 C462.344,26.287 462.026,26.606 461.608,26.606 L455.181,26.606 L455.181,43.655 C455.181,45.635 455.434,47.120 455.940,48.110 ZM434.039,54.092 C432.610,55.489 430.941,56.540 429.029,57.245 C427.118,57.950 425.074,58.303 422.899,58.303 C421.426,58.303 420.059,58.154 418.795,57.856 C417.532,57.557 416.417,57.198 415.450,56.777 C414.483,56.357 413.675,55.917 413.028,55.455 C412.379,54.994 411.912,54.587 411.627,54.234 C411.341,53.882 411.138,53.373 411.017,52.708 C410.896,52.044 410.836,51.088 410.836,49.840 C410.836,48.999 410.857,48.293 410.902,47.724 C410.946,47.154 411.017,46.693 411.116,46.340 C411.215,45.988 411.347,45.737 411.511,45.588 C411.676,45.439 411.868,45.364 412.088,45.364 C412.396,45.364 412.830,45.588 413.390,46.035 C413.950,46.483 414.670,46.978 415.549,47.520 C416.428,48.063 417.477,48.558 418.697,49.006 C419.916,49.453 421.328,49.677 422.932,49.677 C423.986,49.677 424.931,49.521 425.766,49.209 C426.601,48.897 427.310,48.456 427.892,47.887 C428.474,47.317 428.919,46.612 429.227,45.771 C429.534,44.930 429.688,43.994 429.688,42.963 C429.688,41.770 429.425,40.745 428.897,39.891 C428.370,39.036 427.683,38.277 426.837,37.612 C425.991,36.948 425.030,36.324 423.953,35.741 C422.877,35.158 421.767,34.540 420.625,33.889 C419.482,33.238 418.372,32.499 417.296,31.672 C416.219,30.844 415.257,29.855 414.412,28.701 C413.566,27.549 412.879,26.185 412.352,24.612 C411.825,23.039 411.561,21.153 411.561,18.956 C411.561,16.433 411.940,14.216 412.698,12.303 C413.456,10.391 414.478,8.804 415.763,7.542 C417.049,6.281 418.565,5.339 420.312,4.714 C422.058,4.091 423.909,3.779 425.865,3.779 C426.876,3.779 427.886,3.874 428.897,4.063 C429.908,4.253 430.853,4.511 431.732,4.836 C432.610,5.162 433.391,5.528 434.072,5.935 C434.753,6.342 435.203,6.682 435.423,6.952 C435.643,7.224 435.791,7.455 435.868,7.644 C435.945,7.834 436.011,8.085 436.066,8.397 C436.121,8.709 436.159,9.103 436.181,9.577 C436.203,10.052 436.214,10.642 436.214,11.347 C436.214,12.134 436.198,12.798 436.165,13.341 C436.132,13.884 436.077,14.331 436.000,14.683 C435.923,15.036 435.813,15.294 435.670,15.457 C435.527,15.619 435.335,15.701 435.094,15.701 C434.852,15.701 434.467,15.511 433.940,15.131 C433.413,14.751 432.764,14.338 431.995,13.890 C431.226,13.442 430.336,13.036 429.326,12.669 C428.315,12.303 427.205,12.120 425.997,12.120 C425.052,12.120 424.228,12.262 423.525,12.547 C422.822,12.832 422.234,13.226 421.762,13.727 C421.289,14.230 420.938,14.833 420.707,15.538 C420.476,16.244 420.361,16.989 420.361,17.776 C420.361,18.943 420.619,19.953 421.135,20.807 C421.652,21.662 422.344,22.422 423.212,23.086 C424.080,23.751 425.063,24.375 426.162,24.958 C427.260,25.541 428.381,26.158 429.524,26.809 C430.666,27.460 431.786,28.200 432.885,29.027 C433.984,29.855 434.962,30.844 435.819,31.997 C436.676,33.150 437.368,34.507 437.895,36.066 C438.422,37.626 438.686,39.464 438.686,41.580 C438.686,44.347 438.269,46.775 437.434,48.863 C436.598,50.952 435.467,52.695 434.039,54.092 ZM392.413,8.844 C392.325,9.103 392.226,9.279 392.116,9.373 C392.006,9.469 391.886,9.516 391.754,9.516 C391.600,9.516 391.429,9.469 391.243,9.373 C391.056,9.279 390.825,9.177 390.551,9.068 C390.276,8.960 389.952,8.858 389.579,8.763 C389.205,8.668 388.765,8.621 388.260,8.621 C387.667,8.621 387.156,8.736 386.728,8.967 C386.299,9.197 385.942,9.564 385.656,10.065 C385.371,10.567 385.162,11.218 385.030,12.018 C384.898,12.819 384.832,13.802 384.832,14.968 L384.832,18.305 L390.205,18.305 C390.403,18.305 390.584,18.373 390.749,18.508 C390.913,18.644 391.050,18.868 391.161,19.180 C391.270,19.492 391.353,19.919 391.408,20.461 C391.462,21.004 391.490,21.669 391.490,22.455 C391.490,23.947 391.380,25.012 391.161,25.649 C390.941,26.287 390.622,26.606 390.205,26.606 L384.832,26.606 L384.832,55.984 C384.832,56.255 384.767,56.493 384.635,56.696 C384.503,56.899 384.283,57.069 383.976,57.205 C383.668,57.341 383.239,57.442 382.690,57.510 C382.141,57.577 381.471,57.612 380.680,57.612 C379.889,57.612 379.224,57.577 378.686,57.510 C378.147,57.442 377.718,57.341 377.400,57.205 C377.081,57.069 376.862,56.899 376.741,56.696 C376.620,56.493 376.560,56.255 376.560,55.984 L376.560,26.606 L372.868,26.606 C372.451,26.606 372.138,26.287 371.929,25.649 C371.720,25.012 371.616,23.947 371.616,22.455 C371.616,21.669 371.643,21.004 371.698,20.461 C371.753,19.919 371.830,19.492 371.929,19.180 C372.028,18.868 372.160,18.644 372.325,18.508 C372.489,18.373 372.681,18.305 372.901,18.305 L376.560,18.305 L376.560,15.253 C376.560,12.785 376.758,10.621 377.153,8.763 C377.549,6.905 378.169,5.359 379.015,4.124 C379.861,2.890 380.938,1.961 382.245,1.337 C383.552,0.713 385.096,0.401 386.876,0.401 C387.733,0.401 388.546,0.490 389.315,0.666 C390.084,0.842 390.688,1.032 391.128,1.235 C391.567,1.439 391.864,1.629 392.018,1.805 C392.171,1.982 392.298,2.239 392.397,2.578 C392.495,2.918 392.567,3.351 392.611,3.880 C392.655,4.409 392.677,5.067 392.677,5.854 C392.677,6.641 392.655,7.272 392.611,7.746 C392.567,8.221 392.501,8.587 392.413,8.844 ZM365.404,40.440 L347.507,40.440 C347.507,41.987 347.655,43.390 347.952,44.652 C348.249,45.913 348.721,46.985 349.369,47.866 C350.017,48.748 350.852,49.419 351.874,49.880 C352.896,50.342 354.121,50.572 355.549,50.572 C356.999,50.572 358.273,50.444 359.372,50.186 C360.471,49.928 361.421,49.643 362.223,49.331 C363.025,49.020 363.690,48.735 364.217,48.477 C364.745,48.219 365.173,48.090 365.503,48.090 C365.700,48.090 365.865,48.138 365.997,48.232 C366.129,48.328 366.239,48.497 366.327,48.741 C366.414,48.985 366.475,49.331 366.508,49.779 C366.541,50.226 366.557,50.790 366.557,51.467 C366.557,52.064 366.546,52.573 366.524,52.993 C366.502,53.414 366.469,53.773 366.426,54.071 C366.381,54.370 366.315,54.621 366.228,54.824 C366.140,55.028 366.024,55.225 365.882,55.414 C365.739,55.604 365.349,55.862 364.712,56.187 C364.074,56.513 363.261,56.832 362.273,57.144 C361.284,57.455 360.152,57.727 358.878,57.957 C357.603,58.188 356.241,58.303 354.791,58.303 C352.176,58.303 349.885,57.896 347.919,57.083 C345.952,56.269 344.310,55.035 342.992,53.380 C341.673,51.725 340.690,49.636 340.042,47.113 C339.394,44.591 339.070,41.634 339.070,38.243 C339.070,35.015 339.410,32.106 340.091,29.515 C340.772,26.925 341.761,24.728 343.058,22.923 C344.354,21.119 345.930,19.743 347.787,18.793 C349.644,17.844 351.737,17.369 354.066,17.369 C356.527,17.369 358.631,17.817 360.378,18.712 C362.124,19.607 363.558,20.848 364.679,22.435 C365.799,24.022 366.623,25.901 367.151,28.071 C367.678,30.241 367.942,32.601 367.942,35.151 L367.942,36.778 C367.942,38.026 367.716,38.949 367.266,39.545 C366.815,40.142 366.195,40.440 365.404,40.440 ZM358.499,27.074 C357.499,25.433 355.955,24.612 353.868,24.612 C352.813,24.612 351.896,24.856 351.116,25.344 C350.336,25.833 349.688,26.491 349.172,27.318 C348.655,28.146 348.259,29.122 347.985,30.247 C347.710,31.373 347.551,32.574 347.507,33.849 L359.900,33.849 C359.966,30.973 359.499,28.715 358.499,27.074 ZM330.287,55.129 C329.144,56.187 327.793,56.981 326.233,57.510 C324.672,58.039 322.981,58.303 321.157,58.303 C320.058,58.303 319.009,58.202 318.009,57.998 C317.009,57.795 316.114,57.537 315.323,57.225 C314.532,56.913 313.873,56.594 313.346,56.269 C312.818,55.943 312.434,55.638 312.192,55.353 C311.950,55.068 311.764,54.621 311.632,54.010 C311.500,53.400 311.434,52.499 311.434,51.305 C311.434,50.518 311.456,49.887 311.500,49.412 C311.544,48.938 311.610,48.558 311.698,48.273 C311.785,47.988 311.896,47.799 312.027,47.703 C312.159,47.609 312.324,47.561 312.522,47.561 C312.763,47.561 313.120,47.731 313.593,48.070 C314.065,48.409 314.653,48.782 315.356,49.189 C316.059,49.596 316.878,49.976 317.812,50.328 C318.745,50.681 319.806,50.857 320.992,50.857 C321.739,50.857 322.404,50.762 322.986,50.572 C323.568,50.383 324.074,50.111 324.502,49.758 C324.931,49.406 325.255,48.959 325.475,48.416 C325.694,47.873 325.804,47.250 325.804,46.544 C325.804,45.730 325.601,45.032 325.195,44.448 C324.788,43.865 324.250,43.357 323.580,42.922 C322.909,42.489 322.151,42.082 321.305,41.702 C320.459,41.322 319.592,40.902 318.702,40.440 C317.812,39.979 316.943,39.450 316.098,38.853 C315.252,38.257 314.494,37.525 313.824,36.656 C313.153,35.788 312.615,34.744 312.209,33.523 C311.802,32.302 311.599,30.837 311.599,29.128 C311.599,27.393 311.873,25.799 312.423,24.347 C312.972,22.897 313.763,21.655 314.796,20.624 C315.829,19.594 317.087,18.793 318.570,18.224 C320.053,17.654 321.717,17.369 323.563,17.369 C324.486,17.369 325.381,17.450 326.249,17.613 C327.117,17.776 327.902,17.979 328.606,18.224 C329.309,18.468 329.902,18.732 330.386,19.017 C330.869,19.302 331.215,19.546 331.424,19.749 C331.632,19.953 331.781,20.156 331.869,20.360 C331.956,20.563 332.022,20.807 332.066,21.092 C332.110,21.377 332.149,21.730 332.182,22.150 C332.215,22.571 332.231,23.093 332.231,23.717 C332.231,24.449 332.215,25.046 332.182,25.507 C332.149,25.969 332.094,26.335 332.017,26.606 C331.940,26.877 331.836,27.060 331.704,27.155 C331.572,27.250 331.418,27.297 331.243,27.297 C331.045,27.297 330.737,27.155 330.320,26.870 C329.902,26.585 329.380,26.280 328.754,25.955 C328.128,25.629 327.403,25.324 326.579,25.039 C325.755,24.754 324.816,24.612 323.761,24.612 C323.014,24.612 322.365,24.707 321.816,24.897 C321.267,25.087 320.816,25.358 320.465,25.710 C320.113,26.063 319.850,26.477 319.674,26.952 C319.498,27.426 319.410,27.935 319.410,28.477 C319.410,29.319 319.619,30.024 320.036,30.593 C320.454,31.163 321.003,31.665 321.684,32.099 C322.365,32.533 323.140,32.940 324.008,33.320 C324.876,33.700 325.755,34.113 326.645,34.561 C327.535,35.008 328.413,35.531 329.281,36.127 C330.149,36.724 330.924,37.457 331.605,38.324 C332.286,39.193 332.835,40.230 333.253,41.437 C333.670,42.645 333.879,44.076 333.879,45.730 C333.879,47.792 333.566,49.610 332.940,51.182 C332.314,52.756 331.429,54.071 330.287,55.129 ZM301.959,52.525 C300.619,54.370 298.938,55.794 296.916,56.798 C294.895,57.801 292.533,58.303 289.830,58.303 C287.215,58.303 284.941,57.856 283.008,56.960 C281.074,56.065 279.470,54.763 278.196,53.054 C276.921,51.345 275.976,49.243 275.361,46.747 C274.746,44.252 274.438,41.404 274.438,38.202 C274.438,35.110 274.773,32.282 275.444,29.718 C276.114,27.155 277.119,24.958 278.459,23.127 C279.799,21.296 281.475,19.878 283.486,18.875 C285.496,17.871 287.853,17.369 290.555,17.369 C293.192,17.369 295.477,17.810 297.411,18.691 C299.344,19.573 300.943,20.868 302.206,22.577 C303.470,24.286 304.409,26.389 305.024,28.884 C305.639,31.380 305.947,34.242 305.947,37.470 C305.947,40.562 305.618,43.384 304.958,45.933 C304.299,48.484 303.299,50.681 301.959,52.525 ZM297.065,32.933 C296.834,31.427 296.444,30.119 295.895,29.006 C295.345,27.894 294.614,27.027 293.703,26.402 C292.791,25.779 291.643,25.466 290.259,25.466 C289.028,25.466 287.952,25.745 287.029,26.300 C286.106,26.857 285.348,27.671 284.755,28.742 C284.161,29.814 283.716,31.102 283.420,32.607 C283.123,34.113 282.975,35.829 282.975,37.755 C282.975,39.545 283.095,41.193 283.337,42.699 C283.579,44.204 283.969,45.513 284.507,46.625 C285.045,47.738 285.776,48.599 286.699,49.209 C287.622,49.819 288.764,50.125 290.127,50.125 C291.379,50.125 292.467,49.847 293.390,49.290 C294.313,48.735 295.071,47.927 295.664,46.869 C296.257,45.811 296.696,44.530 296.982,43.024 C297.268,41.519 297.411,39.803 297.411,37.877 C297.411,36.086 297.295,34.439 297.065,32.933 ZM264.419,54.051 C263.551,55.394 262.414,56.418 261.008,57.123 C259.602,57.828 257.866,58.181 255.801,58.181 C255.142,58.181 254.488,58.120 253.840,57.998 C253.191,57.876 252.598,57.720 252.060,57.530 C251.521,57.341 251.055,57.137 250.659,56.920 C250.264,56.703 249.1000,56.507 249.868,56.330 C249.736,56.154 249.626,55.971 249.538,55.780 C249.450,55.591 249.374,55.340 249.308,55.028 C249.242,54.716 249.198,54.330 249.176,53.868 C249.154,53.407 249.143,52.824 249.143,52.118 C249.143,51.196 249.159,50.416 249.192,49.779 C249.225,49.142 249.280,48.639 249.357,48.273 C249.434,47.907 249.544,47.649 249.687,47.500 C249.829,47.351 250.011,47.276 250.231,47.276 C250.428,47.276 250.659,47.365 250.923,47.541 C251.186,47.717 251.483,47.901 251.813,48.090 C252.142,48.280 252.526,48.463 252.966,48.639 C253.406,48.816 253.922,48.904 254.515,48.904 C255.109,48.904 255.630,48.802 256.081,48.599 C256.531,48.395 256.905,48.043 257.201,47.541 C257.498,47.039 257.723,46.368 257.877,45.527 C258.031,44.686 258.108,43.601 258.108,42.271 L258.108,6.098 C258.108,5.827 258.179,5.589 258.322,5.386 C258.465,5.182 258.695,5.013 259.014,4.877 C259.332,4.742 259.777,4.640 260.349,4.572 C260.920,4.505 261.623,4.470 262.458,4.470 C263.293,4.470 263.985,4.505 264.535,4.572 C265.084,4.640 265.529,4.742 265.870,4.877 C266.210,5.013 266.452,5.182 266.595,5.386 C266.737,5.589 266.809,5.827 266.809,6.098 L266.809,42.719 C266.809,45.106 266.628,47.256 266.265,49.168 C265.903,51.081 265.287,52.708 264.419,54.051 ZM217.789,32.106 C217.745,32.235 217.696,32.323 217.641,32.370 C217.586,32.418 217.525,32.442 217.459,32.442 C217.382,32.442 217.297,32.418 217.204,32.370 C217.111,32.323 216.995,32.272 216.858,32.218 C216.720,32.164 216.558,32.113 216.372,32.065 C216.185,32.018 215.965,31.994 215.713,31.994 C215.416,31.994 215.161,32.052 214.946,32.167 C214.732,32.282 214.553,32.465 214.411,32.716 C214.268,32.967 214.164,33.293 214.098,33.693 C214.032,34.093 213.999,34.585 213.999,35.168 L213.999,36.836 L216.685,36.836 C216.784,36.836 216.874,36.870 216.957,36.938 C217.039,37.006 217.108,37.118 217.163,37.274 C217.218,37.430 217.259,37.643 217.286,37.914 C217.314,38.186 217.328,38.518 217.328,38.911 C217.328,39.657 217.272,40.190 217.163,40.508 C217.053,40.827 216.893,40.987 216.685,40.987 L213.999,40.987 L213.999,55.676 C213.999,55.811 213.966,55.930 213.900,56.032 C213.834,56.133 213.724,56.218 213.570,56.286 C213.416,56.354 213.202,56.405 212.928,56.439 C212.653,56.472 212.318,56.489 211.922,56.489 C211.527,56.489 211.194,56.472 210.925,56.439 C210.656,56.405 210.442,56.354 210.283,56.286 C210.123,56.218 210.013,56.133 209.953,56.032 C209.892,55.930 209.862,55.811 209.862,55.676 L209.862,40.987 L208.017,40.987 C207.808,40.987 207.651,40.827 207.547,40.508 C207.442,40.190 207.390,39.657 207.390,38.911 C207.390,38.518 207.404,38.186 207.432,37.914 C207.459,37.643 207.498,37.430 207.547,37.274 C207.596,37.118 207.662,37.006 207.745,36.938 C207.827,36.870 207.923,36.836 208.033,36.836 L209.862,36.836 L209.862,35.310 C209.862,34.076 209.961,32.994 210.159,32.065 C210.357,31.136 210.667,30.363 211.090,29.746 C211.513,29.129 212.051,28.664 212.705,28.352 C213.359,28.040 214.131,27.884 215.020,27.884 C215.449,27.884 215.855,27.928 216.240,28.017 C216.624,28.105 216.926,28.200 217.146,28.301 C217.366,28.403 217.514,28.498 217.591,28.586 C217.668,28.675 217.731,28.803 217.781,28.973 C217.830,29.143 217.866,29.359 217.888,29.624 C217.910,29.888 217.921,30.217 217.921,30.611 C217.921,31.004 217.910,31.319 217.888,31.557 C217.866,31.794 217.833,31.977 217.789,32.106 ZM203.781,53.946 C203.111,54.869 202.271,55.581 201.260,56.083 C200.249,56.584 199.068,56.835 197.717,56.835 C196.409,56.835 195.272,56.612 194.306,56.164 C193.339,55.716 192.537,55.065 191.900,54.211 C191.262,53.356 190.790,52.305 190.482,51.057 C190.175,49.810 190.021,48.385 190.021,46.785 C190.021,45.239 190.188,43.825 190.524,42.543 C190.859,41.261 191.361,40.163 192.032,39.247 C192.702,38.331 193.539,37.623 194.545,37.121 C195.550,36.619 196.728,36.368 198.080,36.368 C199.398,36.368 200.540,36.589 201.507,37.029 C202.474,37.470 203.273,38.118 203.905,38.972 C204.537,39.827 205.006,40.878 205.314,42.126 C205.621,43.374 205.775,44.805 205.775,46.419 C205.775,47.965 205.611,49.376 205.281,50.650 C204.951,51.925 204.451,53.024 203.781,53.946 ZM201.334,44.150 C201.219,43.397 201.024,42.743 200.749,42.187 C200.474,41.631 200.109,41.197 199.653,40.885 C199.197,40.573 198.623,40.417 197.931,40.417 C197.316,40.417 196.778,40.556 196.316,40.834 C195.855,41.112 195.476,41.519 195.179,42.055 C194.883,42.591 194.660,43.235 194.512,43.987 C194.363,44.740 194.289,45.598 194.289,46.561 C194.289,47.456 194.350,48.280 194.471,49.033 C194.591,49.786 194.786,50.440 195.056,50.996 C195.325,51.553 195.690,51.983 196.151,52.288 C196.613,52.593 197.184,52.746 197.865,52.746 C198.492,52.746 199.035,52.607 199.497,52.329 C199.958,52.051 200.337,51.647 200.634,51.118 C200.930,50.589 201.150,49.949 201.293,49.196 C201.436,48.443 201.507,47.585 201.507,46.622 C201.507,45.727 201.450,44.903 201.334,44.150 ZM178.008,53.946 C177.337,54.869 176.497,55.581 175.486,56.083 C174.475,56.584 173.294,56.835 171.943,56.835 C170.636,56.835 169.498,56.612 168.532,56.164 C167.565,55.716 166.763,55.065 166.126,54.211 C165.489,53.356 165.016,52.305 164.709,51.057 C164.401,49.810 164.247,48.385 164.247,46.785 C164.247,45.239 164.415,43.825 164.750,42.543 C165.085,41.261 165.587,40.163 166.258,39.247 C166.928,38.331 167.766,37.623 168.771,37.121 C169.776,36.619 170.954,36.368 172.306,36.368 C173.624,36.368 174.766,36.589 175.733,37.029 C176.700,37.470 177.499,38.118 178.131,38.972 C178.763,39.827 179.232,40.878 179.540,42.126 C179.848,43.374 180.002,44.805 180.002,46.419 C180.002,47.965 179.837,49.376 179.507,50.650 C179.178,51.925 178.678,53.024 178.008,53.946 ZM175.560,44.150 C175.445,43.397 175.250,42.743 174.975,42.187 C174.701,41.631 174.335,41.197 173.879,40.885 C173.423,40.573 172.849,40.417 172.157,40.417 C171.542,40.417 171.004,40.556 170.542,40.834 C170.081,41.112 169.702,41.519 169.405,42.055 C169.109,42.591 168.886,43.235 168.738,43.987 C168.589,44.740 168.515,45.598 168.515,46.561 C168.515,47.456 168.576,48.280 168.697,49.033 C168.817,49.786 169.012,50.440 169.282,50.996 C169.551,51.553 169.916,51.983 170.378,52.288 C170.839,52.593 171.410,52.746 172.091,52.746 C172.718,52.746 173.261,52.607 173.723,52.329 C174.184,52.051 174.563,51.647 174.860,51.118 C175.157,50.589 175.376,49.949 175.519,49.196 C175.662,48.443 175.733,47.585 175.733,46.622 C175.733,45.727 175.676,44.903 175.560,44.150 ZM158.908,34.110 C157.974,34.110 157.345,33.920 157.021,33.540 C156.697,33.161 156.535,32.476 156.535,31.485 C156.535,30.455 156.702,29.739 157.037,29.339 C157.372,28.939 158.007,28.739 158.941,28.739 C159.864,28.739 160.490,28.932 160.819,29.319 C161.149,29.705 161.314,30.394 161.314,31.384 C161.314,32.415 161.143,33.127 160.803,33.520 C160.462,33.913 159.831,34.110 158.908,34.110 ZM152.275,56.286 C152.115,56.354 151.904,56.405 151.640,56.439 C151.377,56.472 151.041,56.489 150.635,56.489 C150.228,56.489 149.893,56.472 149.630,56.439 C149.366,56.405 149.154,56.354 148.995,56.286 C148.836,56.218 148.723,56.133 148.658,56.032 C148.592,55.930 148.559,55.811 148.559,55.676 L148.559,28.922 C148.559,28.786 148.592,28.664 148.658,28.556 C148.723,28.447 148.836,28.356 148.995,28.281 C149.154,28.207 149.366,28.149 149.630,28.108 C149.893,28.067 150.228,28.047 150.635,28.047 C151.041,28.047 151.377,28.067 151.640,28.108 C151.904,28.149 152.115,28.207 152.275,28.281 C152.434,28.356 152.547,28.447 152.613,28.556 C152.679,28.664 152.711,28.786 152.711,28.922 L152.711,55.676 C152.711,55.811 152.679,55.930 152.613,56.032 C152.547,56.133 152.434,56.218 152.275,56.286 ZM143.285,53.946 C142.615,54.869 141.775,55.581 140.764,56.083 C139.753,56.584 138.572,56.835 137.221,56.835 C135.913,56.835 134.776,56.612 133.810,56.164 C132.843,55.716 132.041,55.065 131.404,54.211 C130.766,53.356 130.294,52.305 129.986,51.057 C129.679,49.810 129.525,48.385 129.525,46.785 C129.525,45.239 129.692,43.825 130.027,42.543 C130.362,41.261 130.865,40.163 131.535,39.247 C132.205,38.331 133.043,37.623 134.048,37.121 C135.054,36.619 136.232,36.368 137.583,36.368 C138.902,36.368 140.044,36.589 141.011,37.029 C141.978,37.470 142.777,38.118 143.409,38.972 C144.040,39.827 144.510,40.878 144.818,42.126 C145.125,43.374 145.279,44.805 145.279,46.419 C145.279,47.965 145.114,49.376 144.785,50.650 C144.455,51.925 143.955,53.024 143.285,53.946 ZM140.838,44.150 C140.723,43.397 140.527,42.743 140.253,42.187 C139.978,41.631 139.613,41.197 139.157,40.885 C138.701,40.573 138.127,40.417 137.435,40.417 C136.820,40.417 136.281,40.556 135.820,40.834 C135.359,41.112 134.980,41.519 134.683,42.055 C134.386,42.591 134.164,43.235 134.016,43.987 C133.867,44.740 133.793,45.598 133.793,46.561 C133.793,47.456 133.853,48.280 133.974,49.033 C134.095,49.786 134.290,50.440 134.559,50.996 C134.828,51.553 135.194,51.983 135.655,52.288 C136.117,52.593 136.688,52.746 137.369,52.746 C137.995,52.746 138.539,52.607 139.001,52.329 C139.462,52.051 139.841,51.647 140.138,51.118 C140.434,50.589 140.654,49.949 140.797,49.196 C140.939,48.443 141.011,47.585 141.011,46.622 C141.011,45.727 140.953,44.903 140.838,44.150 ZM128.981,32.106 C128.937,32.235 128.890,32.323 128.841,32.370 C128.792,32.418 128.734,32.442 128.668,32.442 C128.591,32.442 128.456,32.398 128.264,32.309 C128.072,32.221 127.863,32.147 127.638,32.086 C127.413,32.025 127.179,31.994 126.938,31.994 C126.630,31.994 126.366,32.052 126.147,32.167 C125.927,32.282 125.748,32.465 125.611,32.716 C125.473,32.967 125.369,33.293 125.298,33.693 C125.226,34.093 125.191,34.585 125.191,35.168 L125.191,36.836 L127.877,36.836 C127.976,36.836 128.066,36.870 128.149,36.938 C128.231,37.006 128.303,37.118 128.363,37.274 C128.423,37.430 128.467,37.643 128.495,37.914 C128.522,38.186 128.536,38.518 128.536,38.911 C128.536,39.657 128.478,40.190 128.363,40.508 C128.248,40.827 128.091,40.987 127.893,40.987 L125.191,40.987 L125.191,55.676 C125.191,55.811 125.158,55.930 125.092,56.032 C125.026,56.133 124.916,56.218 124.762,56.286 C124.608,56.354 124.397,56.405 124.128,56.439 C123.858,56.472 123.521,56.489 123.114,56.489 C122.719,56.489 122.386,56.472 122.117,56.439 C121.848,56.405 121.634,56.354 121.475,56.286 C121.315,56.218 121.205,56.133 121.145,56.032 C121.085,55.930 121.054,55.811 121.054,55.676 L121.054,40.987 L114.413,40.987 L114.413,49.511 C114.413,50.501 114.539,51.244 114.792,51.739 C115.045,52.234 115.495,52.481 116.143,52.481 C116.363,52.481 116.561,52.458 116.737,52.410 C116.912,52.363 117.069,52.309 117.206,52.248 C117.344,52.186 117.459,52.132 117.552,52.085 C117.646,52.037 117.731,52.014 117.808,52.014 C117.874,52.014 117.937,52.037 117.997,52.085 C118.058,52.132 118.105,52.227 118.138,52.370 C118.170,52.512 118.201,52.705 118.228,52.949 C118.255,53.194 118.269,53.506 118.269,53.885 C118.269,54.482 118.239,54.940 118.179,55.259 C118.118,55.577 118.039,55.801 117.940,55.930 C117.841,56.059 117.695,56.174 117.503,56.276 C117.311,56.378 117.085,56.466 116.827,56.540 C116.569,56.615 116.289,56.673 115.987,56.713 C115.685,56.754 115.380,56.774 115.072,56.774 C114.248,56.774 113.534,56.645 112.930,56.388 C112.326,56.130 111.826,55.734 111.430,55.198 C111.035,54.662 110.744,53.987 110.557,53.173 C110.370,52.359 110.277,51.397 110.277,50.284 L110.277,40.987 L108.513,40.987 C108.305,40.987 108.145,40.827 108.036,40.508 C107.926,40.190 107.871,39.657 107.871,38.911 C107.871,38.518 107.884,38.186 107.912,37.914 C107.939,37.643 107.980,37.430 108.036,37.274 C108.090,37.118 108.159,37.006 108.242,36.938 C108.324,36.870 108.420,36.836 108.530,36.836 L110.277,36.836 L110.277,32.787 C110.277,32.652 110.307,32.530 110.367,32.421 C110.428,32.313 110.538,32.221 110.697,32.147 C110.856,32.072 111.070,32.018 111.340,31.984 C111.609,31.950 111.941,31.933 112.337,31.933 C112.743,31.933 113.081,31.950 113.350,31.984 C113.619,32.018 113.831,32.072 113.985,32.147 C114.138,32.221 114.248,32.313 114.314,32.421 C114.380,32.530 114.413,32.652 114.413,32.787 L114.413,36.836 L121.054,36.836 L121.054,35.310 C121.054,34.076 121.156,32.994 121.359,32.065 C121.562,31.136 121.876,30.363 122.299,29.746 C122.721,29.129 123.257,28.664 123.905,28.352 C124.553,28.040 125.328,27.884 126.229,27.884 C126.646,27.884 127.050,27.928 127.440,28.017 C127.830,28.105 128.132,28.200 128.347,28.301 C128.561,28.403 128.709,28.498 128.792,28.586 C128.874,28.675 128.937,28.803 128.981,28.973 C129.025,29.143 129.058,29.359 129.080,29.624 C129.102,29.888 129.113,30.217 129.113,30.611 C129.113,31.004 129.102,31.319 129.080,31.557 C129.058,31.794 129.025,31.977 128.981,32.106 ZM106.882,41.149 C106.838,41.326 106.780,41.448 106.709,41.515 C106.637,41.584 106.547,41.617 106.437,41.617 C106.349,41.617 106.250,41.594 106.140,41.546 C106.030,41.499 105.907,41.448 105.770,41.393 C105.632,41.339 105.481,41.289 105.316,41.241 C105.152,41.193 104.970,41.170 104.773,41.170 C104.542,41.170 104.311,41.227 104.081,41.343 C103.850,41.458 103.611,41.638 103.364,41.882 C103.116,42.126 102.858,42.451 102.589,42.858 C102.320,43.265 102.031,43.767 101.724,44.364 L101.724,55.676 C101.724,55.811 101.691,55.930 101.625,56.032 C101.559,56.133 101.446,56.218 101.287,56.286 C101.128,56.354 100.916,56.405 100.653,56.439 C100.389,56.472 100.054,56.489 99.648,56.489 C99.241,56.489 98.906,56.472 98.642,56.439 C98.379,56.405 98.167,56.354 98.008,56.286 C97.848,56.218 97.736,56.133 97.670,56.032 C97.604,55.930 97.571,55.811 97.571,55.676 L97.571,37.528 C97.571,37.392 97.598,37.274 97.654,37.172 C97.708,37.070 97.807,36.986 97.950,36.918 C98.093,36.850 98.277,36.799 98.502,36.765 C98.727,36.731 99.010,36.714 99.351,36.714 C99.702,36.714 99.994,36.731 100.224,36.765 C100.455,36.799 100.633,36.850 100.760,36.918 C100.886,36.986 100.977,37.070 101.032,37.172 C101.087,37.274 101.114,37.392 101.114,37.528 L101.114,39.786 C101.499,39.108 101.861,38.549 102.202,38.108 C102.542,37.667 102.866,37.318 103.174,37.060 C103.482,36.802 103.789,36.623 104.097,36.521 C104.404,36.419 104.712,36.368 105.020,36.368 C105.162,36.368 105.316,36.378 105.481,36.399 C105.646,36.419 105.816,36.453 105.992,36.500 C106.168,36.548 106.322,36.602 106.454,36.663 C106.585,36.724 106.681,36.789 106.742,36.856 C106.802,36.925 106.846,36.999 106.874,37.080 C106.901,37.162 106.926,37.274 106.948,37.416 C106.970,37.558 106.986,37.772 106.997,38.057 C107.008,38.342 107.014,38.728 107.014,39.217 C107.014,39.705 107.003,40.105 106.981,40.417 C106.959,40.729 106.926,40.973 106.882,41.149 ZM92.298,53.946 C91.627,54.869 90.787,55.581 89.776,56.083 C88.765,56.584 87.585,56.835 86.233,56.835 C84.926,56.835 83.789,56.612 82.822,56.164 C81.855,55.716 81.053,55.065 80.416,54.211 C79.779,53.356 79.306,52.305 78.999,51.057 C78.691,49.810 78.537,48.385 78.537,46.785 C78.537,45.239 78.705,43.825 79.040,42.543 C79.375,41.261 79.878,40.163 80.548,39.247 C81.218,38.331 82.056,37.623 83.061,37.121 C84.066,36.619 85.244,36.368 86.596,36.368 C87.914,36.368 89.057,36.589 90.024,37.029 C90.990,37.470 91.789,38.118 92.421,38.972 C93.053,39.827 93.523,40.878 93.830,42.126 C94.138,43.374 94.292,44.805 94.292,46.419 C94.292,47.965 94.127,49.376 93.797,50.650 C93.468,51.925 92.968,53.024 92.298,53.946 ZM89.850,44.150 C89.735,43.397 89.540,42.743 89.265,42.187 C88.991,41.631 88.625,41.197 88.170,40.885 C87.714,40.573 87.140,40.417 86.447,40.417 C85.832,40.417 85.294,40.556 84.832,40.834 C84.371,41.112 83.992,41.519 83.695,42.055 C83.399,42.591 83.176,43.235 83.028,43.987 C82.880,44.740 82.805,45.598 82.805,46.561 C82.805,47.456 82.866,48.280 82.987,49.033 C83.108,49.786 83.302,50.440 83.572,50.996 C83.841,51.553 84.206,51.983 84.668,52.288 C85.129,52.593 85.700,52.746 86.382,52.746 C87.008,52.746 87.552,52.607 88.013,52.329 C88.474,52.051 88.853,51.647 89.150,51.118 C89.447,50.589 89.666,49.949 89.809,49.196 C89.952,48.443 90.024,47.585 90.024,46.622 C90.024,45.727 89.966,44.903 89.850,44.150 ZM74.665,44.842 C73.950,45.622 73.074,46.215 72.036,46.622 C70.998,47.029 69.776,47.232 68.369,47.232 L66.590,47.232 L66.590,55.635 C66.590,55.771 66.554,55.893 66.483,56.001 C66.411,56.110 66.293,56.198 66.128,56.266 C65.963,56.334 65.744,56.388 65.469,56.428 C65.194,56.469 64.843,56.489 64.414,56.489 C63.997,56.489 63.648,56.469 63.368,56.428 C63.088,56.388 62.865,56.334 62.701,56.266 C62.536,56.198 62.420,56.110 62.354,56.001 C62.289,55.893 62.256,55.771 62.256,55.635 L62.256,31.953 C62.256,31.316 62.390,30.838 62.659,30.519 C62.928,30.200 63.283,30.041 63.722,30.041 L68.748,30.041 C69.254,30.041 69.734,30.065 70.190,30.112 C70.646,30.160 71.193,30.262 71.830,30.417 C72.467,30.573 73.113,30.862 73.766,31.282 C74.420,31.703 74.978,32.235 75.439,32.879 C75.901,33.523 76.252,34.276 76.494,35.137 C76.735,35.999 76.856,36.965 76.856,38.036 C76.856,39.515 76.669,40.824 76.296,41.963 C75.922,43.102 75.379,44.062 74.665,44.842 ZM71.929,36.144 C71.665,35.548 71.341,35.107 70.957,34.822 C70.572,34.537 70.168,34.358 69.745,34.283 C69.322,34.208 68.886,34.171 68.435,34.171 L66.590,34.171 L66.590,43.102 L68.534,43.102 C69.226,43.102 69.806,42.987 70.273,42.757 C70.740,42.526 71.122,42.204 71.418,41.790 C71.715,41.377 71.940,40.882 72.094,40.305 C72.248,39.729 72.325,39.101 72.325,38.423 C72.325,37.501 72.193,36.741 71.929,36.144 ZM49.698,47.904 L40.750,47.904 C40.750,48.677 40.824,49.379 40.972,50.010 C41.121,50.640 41.357,51.176 41.681,51.617 C42.005,52.058 42.422,52.393 42.933,52.624 C43.444,52.855 44.057,52.970 44.771,52.970 C45.496,52.970 46.133,52.906 46.682,52.776 C47.232,52.648 47.707,52.505 48.108,52.349 C48.509,52.193 48.841,52.051 49.105,51.922 C49.369,51.793 49.583,51.729 49.748,51.729 C49.846,51.729 49.929,51.753 49.995,51.800 C50.061,51.848 50.116,51.932 50.160,52.054 C50.203,52.176 50.234,52.349 50.250,52.573 C50.267,52.797 50.275,53.078 50.275,53.417 C50.275,53.716 50.269,53.970 50.258,54.180 C50.247,54.391 50.231,54.570 50.209,54.719 C50.187,54.869 50.154,54.994 50.110,55.096 C50.066,55.198 50.008,55.296 49.937,55.391 C49.866,55.486 49.671,55.615 49.352,55.777 C49.033,55.940 48.627,56.100 48.133,56.255 C47.638,56.411 47.072,56.547 46.435,56.662 C45.798,56.777 45.117,56.835 44.392,56.835 C43.084,56.835 41.939,56.632 40.956,56.225 C39.972,55.818 39.151,55.201 38.492,54.374 C37.833,53.546 37.341,52.502 37.017,51.240 C36.693,49.979 36.531,48.501 36.531,46.805 C36.531,45.191 36.701,43.737 37.042,42.441 C37.382,41.146 37.877,40.047 38.525,39.145 C39.173,38.243 39.961,37.555 40.890,37.080 C41.818,36.606 42.865,36.368 44.029,36.368 C45.260,36.368 46.312,36.592 47.185,37.040 C48.058,37.487 48.775,38.108 49.336,38.901 C49.896,39.695 50.308,40.634 50.572,41.719 C50.835,42.804 50.967,43.984 50.967,45.259 L50.967,46.073 C50.967,46.697 50.854,47.158 50.629,47.456 C50.404,47.755 50.094,47.904 49.698,47.904 ZM46.246,41.220 C45.746,40.400 44.974,39.990 43.930,39.990 C43.403,39.990 42.944,40.112 42.554,40.356 C42.164,40.600 41.840,40.929 41.582,41.343 C41.324,41.756 41.126,42.245 40.989,42.807 C40.851,43.370 40.772,43.971 40.750,44.608 L46.946,44.608 C46.979,43.170 46.746,42.041 46.246,41.220 ZM32.889,56.286 C32.735,56.354 32.524,56.405 32.255,56.439 C31.985,56.472 31.653,56.489 31.258,56.489 C30.851,56.489 30.513,56.472 30.244,56.439 C29.975,56.405 29.763,56.354 29.610,56.286 C29.456,56.218 29.346,56.133 29.280,56.032 C29.214,55.930 29.181,55.811 29.181,55.676 L29.181,45.320 C29.181,44.439 29.129,43.747 29.025,43.245 C28.920,42.743 28.769,42.312 28.571,41.953 C28.374,41.594 28.118,41.316 27.805,41.119 C27.492,40.922 27.127,40.824 26.709,40.824 C26.182,40.824 25.649,41.061 25.111,41.536 C24.572,42.011 24.012,42.703 23.430,43.611 L23.430,55.676 C23.430,55.811 23.397,55.930 23.331,56.032 C23.265,56.133 23.152,56.218 22.993,56.286 C22.834,56.354 22.622,56.405 22.359,56.439 C22.095,56.472 21.760,56.489 21.353,56.489 C20.947,56.489 20.612,56.472 20.348,56.439 C20.085,56.405 19.873,56.354 19.714,56.286 C19.554,56.218 19.442,56.133 19.376,56.032 C19.310,55.930 19.277,55.811 19.277,55.676 L19.277,28.922 C19.277,28.786 19.310,28.664 19.376,28.556 C19.442,28.447 19.554,28.356 19.714,28.281 C19.873,28.207 20.085,28.149 20.348,28.108 C20.612,28.067 20.947,28.047 21.353,28.047 C21.760,28.047 22.095,28.067 22.359,28.108 C22.622,28.149 22.834,28.207 22.993,28.281 C23.152,28.356 23.265,28.447 23.331,28.556 C23.397,28.664 23.430,28.786 23.430,28.922 L23.430,38.952 C24.144,38.084 24.872,37.436 25.613,37.009 C26.355,36.582 27.127,36.368 27.929,36.368 C28.928,36.368 29.772,36.572 30.458,36.979 C31.145,37.385 31.700,37.942 32.123,38.647 C32.546,39.352 32.850,40.176 33.037,41.119 C33.224,42.062 33.318,43.204 33.318,44.547 L33.318,55.676 C33.318,55.811 33.285,55.930 33.219,56.032 C33.153,56.133 33.043,56.218 32.889,56.286 ZM16.838,33.917 C16.783,34.086 16.714,34.212 16.632,34.293 C16.550,34.374 16.459,34.415 16.360,34.415 L11.021,34.415 L11.021,55.635 C11.021,55.771 10.985,55.893 10.914,56.001 C10.842,56.110 10.724,56.198 10.559,56.266 C10.395,56.334 10.172,56.388 9.892,56.428 C9.612,56.469 9.263,56.489 8.846,56.489 C8.428,56.489 8.079,56.469 7.799,56.428 C7.519,56.388 7.296,56.334 7.132,56.266 C6.967,56.198 6.849,56.110 6.777,56.001 C6.706,55.893 6.670,55.771 6.670,55.635 L6.670,34.415 L1.331,34.415 C1.221,34.415 1.127,34.374 1.051,34.293 C0.974,34.212 0.908,34.086 0.853,33.917 C0.798,33.747 0.757,33.523 0.729,33.245 C0.702,32.967 0.688,32.632 0.688,32.238 C0.688,31.831 0.702,31.485 0.729,31.201 C0.757,30.916 0.798,30.689 0.853,30.519 C0.908,30.350 0.974,30.227 1.051,30.153 C1.127,30.078 1.221,30.041 1.331,30.041 L16.360,30.041 C16.459,30.041 16.550,30.078 16.632,30.153 C16.714,30.227 16.783,30.350 16.838,30.519 C16.893,30.689 16.934,30.916 16.962,31.201 C16.989,31.485 17.003,31.831 17.003,32.238 C17.003,32.632 16.989,32.967 16.962,33.245 C16.934,33.523 16.893,33.747 16.838,33.917 ZM157.285,36.948 C157.444,36.874 157.655,36.816 157.919,36.775 C158.183,36.734 158.518,36.714 158.924,36.714 C159.331,36.714 159.666,36.734 159.930,36.775 C160.193,36.816 160.405,36.874 160.564,36.948 C160.723,37.023 160.836,37.111 160.902,37.213 C160.968,37.314 161.001,37.433 161.001,37.569 L161.001,55.676 C161.001,55.811 160.968,55.930 160.902,56.032 C160.836,56.133 160.723,56.218 160.564,56.286 C160.405,56.354 160.193,56.405 159.930,56.439 C159.666,56.472 159.331,56.489 158.924,56.489 C158.518,56.489 158.183,56.472 157.919,56.439 C157.655,56.405 157.444,56.354 157.285,56.286 C157.125,56.218 157.013,56.133 156.947,56.032 C156.881,55.930 156.848,55.811 156.848,55.676 L156.848,37.569 C156.848,37.433 156.881,37.314 156.947,37.213 C157.013,37.111 157.125,37.023 157.285,36.948 Z"/>
</svg>