<svg 
 xmlns="http://www.w3.org/2000/svg"
 xmlns:xlink="http://www.w3.org/1999/xlink"
 width="332px" height="79px">
<path fill-rule="evenodd"  fill="rgb(255, 255, 255)"
 d="M331.440,77.038 C331.242,77.233 330.931,77.373 330.506,77.459 C330.080,77.544 329.453,77.587 328.622,77.587 C327.732,77.587 327.084,77.544 326.679,77.459 C326.274,77.373 325.987,77.233 325.819,77.038 C325.651,76.843 325.567,76.574 325.567,76.232 L325.567,73.632 C324.479,75.073 323.238,76.196 321.844,77.001 C320.450,77.807 318.902,78.210 317.202,78.210 C315.797,78.210 314.507,77.984 313.331,77.532 C312.154,77.081 311.136,76.410 310.275,75.518 C309.415,74.627 308.748,73.522 308.273,72.204 C307.799,70.885 307.561,69.347 307.561,67.590 C307.561,65.685 307.862,64.032 308.466,62.627 C309.069,61.224 309.969,60.064 311.165,59.148 C312.362,58.233 313.850,57.555 315.630,57.116 C317.409,56.676 319.476,56.457 321.829,56.457 L324.410,56.457 L324.410,54.479 C324.410,53.454 324.325,52.557 324.158,51.788 C323.989,51.019 323.713,50.378 323.327,49.865 C322.942,49.352 322.427,48.974 321.785,48.730 C321.142,48.486 320.346,48.363 319.397,48.363 C318.151,48.363 317.039,48.535 316.060,48.876 C315.081,49.218 314.215,49.597 313.464,50.011 C312.712,50.427 312.085,50.805 311.581,51.147 C311.076,51.489 310.666,51.659 310.350,51.659 C310.132,51.659 309.939,51.574 309.771,51.403 C309.603,51.233 309.464,50.988 309.356,50.671 C309.247,50.354 309.163,49.963 309.104,49.499 C309.044,49.035 309.015,48.523 309.015,47.961 C309.015,47.204 309.064,46.606 309.163,46.166 C309.262,45.727 309.449,45.330 309.727,44.976 C310.003,44.622 310.488,44.232 311.180,43.804 C311.872,43.377 312.683,42.980 313.612,42.614 C314.542,42.248 315.555,41.949 316.653,41.717 C317.750,41.485 318.882,41.369 320.049,41.369 C322.126,41.369 323.900,41.619 325.374,42.120 C326.847,42.620 328.058,43.389 329.008,44.427 C329.957,45.465 330.649,46.801 331.084,48.437 C331.519,50.073 331.737,52.014 331.737,54.259 L331.737,76.232 C331.737,76.574 331.637,76.843 331.440,77.038 ZM324.410,62.243 L321.562,62.243 C320.356,62.243 319.327,62.353 318.477,62.572 C317.627,62.792 316.935,63.122 316.401,63.561 C315.867,64.001 315.476,64.532 315.229,65.154 C314.982,65.777 314.858,66.491 314.858,67.297 C314.858,68.664 315.209,69.738 315.911,70.519 C316.613,71.301 317.587,71.691 318.833,71.691 C319.881,71.691 320.845,71.362 321.725,70.702 C322.605,70.043 323.500,69.079 324.410,67.809 L324.410,62.243 ZM300.234,73.119 C299.265,74.755 298.074,76.012 296.660,76.891 C295.246,77.770 293.639,78.210 291.840,78.210 C290.950,78.210 290.119,78.106 289.348,77.898 C288.577,77.691 287.840,77.355 287.138,76.891 C286.436,76.428 285.744,75.842 285.062,75.133 C284.380,74.426 283.682,73.571 282.971,72.570 L282.971,76.122 C282.971,76.391 282.916,76.617 282.807,76.800 C282.698,76.983 282.520,77.136 282.273,77.258 C282.026,77.379 281.695,77.465 281.280,77.514 C280.864,77.563 280.360,77.587 279.767,77.587 C279.154,77.587 278.644,77.563 278.239,77.514 C277.834,77.465 277.507,77.379 277.260,77.258 C277.013,77.136 276.840,76.983 276.741,76.800 C276.642,76.617 276.593,76.391 276.593,76.122 L276.593,27.966 C276.593,27.722 276.652,27.502 276.771,27.306 C276.890,27.111 277.092,26.946 277.379,26.812 C277.665,26.678 278.046,26.574 278.521,26.501 C278.996,26.427 279.599,26.391 280.330,26.391 C281.062,26.391 281.665,26.427 282.140,26.501 C282.615,26.574 282.995,26.678 283.282,26.812 C283.568,26.946 283.771,27.111 283.890,27.306 C284.009,27.502 284.068,27.722 284.068,27.966 L284.068,46.020 C284.740,45.190 285.413,44.482 286.085,43.896 C286.757,43.310 287.430,42.828 288.102,42.449 C288.774,42.071 289.467,41.796 290.179,41.625 C290.891,41.455 291.642,41.369 292.433,41.369 C294.391,41.369 296.052,41.851 297.416,42.815 C298.781,43.780 299.893,45.080 300.754,46.716 C301.614,48.351 302.241,50.262 302.637,52.447 C303.032,54.632 303.230,56.933 303.230,59.350 C303.230,62.255 302.973,64.868 302.459,67.187 C301.945,69.506 301.203,71.484 300.234,73.119 ZM295.236,55.981 C295.068,54.687 294.776,53.540 294.361,52.538 C293.946,51.537 293.407,50.738 292.744,50.140 C292.082,49.542 291.247,49.242 290.238,49.242 C289.743,49.242 289.259,49.328 288.784,49.499 C288.310,49.670 287.820,49.963 287.316,50.378 C286.812,50.793 286.293,51.330 285.759,51.989 C285.225,52.648 284.661,53.466 284.068,54.443 L284.068,65.282 C285.116,66.943 286.119,68.206 287.079,69.073 C288.038,69.940 289.041,70.373 290.090,70.373 C291.058,70.373 291.879,70.068 292.552,69.457 C293.224,68.847 293.783,68.054 294.228,67.077 C294.673,66.101 294.994,64.989 295.192,63.744 C295.389,62.499 295.488,61.254 295.488,60.009 C295.488,58.617 295.404,57.275 295.236,55.981 ZM267.101,73.009 C265.894,74.670 264.381,75.952 262.562,76.855 C260.743,77.758 258.617,78.210 256.185,78.210 C253.831,78.210 251.784,77.807 250.044,77.001 C248.304,76.196 246.860,75.024 245.714,73.486 C244.567,71.947 243.716,70.056 243.163,67.809 C242.609,65.563 242.332,62.1000 242.332,60.119 C242.332,57.336 242.633,54.790 243.237,52.483 C243.840,50.176 244.745,48.199 245.951,46.551 C247.157,44.903 248.665,43.627 250.475,42.724 C252.284,41.821 254.405,41.369 256.837,41.369 C259.210,41.369 261.267,41.766 263.007,42.559 C264.747,43.353 266.186,44.518 267.323,46.056 C268.460,47.594 269.306,49.487 269.859,51.733 C270.413,53.979 270.690,56.555 270.690,59.460 C270.690,62.243 270.393,64.782 269.800,67.077 C269.207,69.372 268.307,71.350 267.101,73.009 ZM262.696,55.376 C262.488,54.021 262.137,52.844 261.643,51.842 C261.148,50.842 260.491,50.061 259.670,49.499 C258.849,48.937 257.816,48.656 256.570,48.656 C255.463,48.656 254.494,48.907 253.663,49.407 C252.833,49.908 252.151,50.640 251.617,51.604 C251.083,52.569 250.682,53.728 250.415,55.083 C250.148,56.438 250.015,57.983 250.015,59.716 C250.015,61.327 250.123,62.811 250.341,64.165 C250.558,65.520 250.909,66.699 251.394,67.699 C251.878,68.701 252.536,69.476 253.367,70.025 C254.197,70.574 255.225,70.849 256.452,70.849 C257.579,70.849 258.558,70.599 259.388,70.098 C260.219,69.598 260.901,68.871 261.435,67.919 C261.969,66.967 262.364,65.813 262.622,64.458 C262.878,63.103 263.007,61.560 263.007,59.826 C263.007,58.215 262.903,56.731 262.696,55.376 ZM239.840,49.975 C239.761,50.292 239.657,50.512 239.529,50.634 C239.400,50.756 239.237,50.817 239.039,50.817 C238.881,50.817 238.703,50.775 238.506,50.689 C238.308,50.604 238.085,50.512 237.838,50.414 C237.591,50.317 237.319,50.225 237.022,50.140 C236.726,50.054 236.399,50.011 236.044,50.011 C235.628,50.011 235.213,50.116 234.798,50.323 C234.382,50.530 233.952,50.854 233.507,51.293 C233.062,51.733 232.597,52.319 232.113,53.051 C231.628,53.783 231.109,54.687 230.556,55.761 L230.556,76.122 C230.556,76.367 230.497,76.580 230.378,76.763 C230.259,76.946 230.056,77.099 229.770,77.221 C229.483,77.343 229.102,77.434 228.628,77.496 C228.153,77.556 227.550,77.587 226.818,77.587 C226.086,77.587 225.483,77.556 225.009,77.496 C224.534,77.434 224.153,77.343 223.867,77.221 C223.580,77.099 223.377,76.946 223.259,76.763 C223.140,76.580 223.081,76.367 223.081,76.122 L223.081,43.456 C223.081,43.212 223.130,42.998 223.229,42.815 C223.328,42.632 223.506,42.480 223.763,42.358 C224.020,42.236 224.351,42.144 224.757,42.083 C225.162,42.022 225.671,41.991 226.284,41.991 C226.917,41.991 227.441,42.022 227.856,42.083 C228.272,42.144 228.593,42.236 228.821,42.358 C229.048,42.480 229.211,42.632 229.310,42.815 C229.409,42.998 229.458,43.212 229.458,43.456 L229.458,47.521 C230.150,46.301 230.803,45.294 231.416,44.500 C232.029,43.707 232.612,43.078 233.166,42.614 C233.720,42.150 234.273,41.827 234.827,41.644 C235.381,41.460 235.935,41.369 236.488,41.369 C236.745,41.369 237.022,41.387 237.319,41.424 C237.616,41.460 237.922,41.522 238.239,41.607 C238.555,41.693 238.832,41.790 239.069,41.900 C239.306,42.010 239.479,42.126 239.588,42.248 C239.697,42.370 239.776,42.504 239.826,42.651 C239.875,42.797 239.919,42.998 239.959,43.255 C239.998,43.511 240.028,43.896 240.048,44.408 C240.067,44.921 240.078,45.617 240.078,46.496 C240.078,47.375 240.058,48.095 240.018,48.656 C239.979,49.218 239.919,49.658 239.840,49.975 ZM214.404,77.459 C213.979,77.544 213.351,77.587 212.521,77.587 C211.631,77.587 210.983,77.544 210.578,77.459 C210.172,77.373 209.885,77.233 209.718,77.038 C209.549,76.843 209.465,76.574 209.465,76.232 L209.465,73.632 C208.378,75.073 207.137,76.196 205.743,77.001 C204.348,77.807 202.801,78.210 201.100,78.210 C199.696,78.210 198.406,77.984 197.229,77.532 C196.053,77.081 195.034,76.410 194.174,75.518 C193.314,74.627 192.646,73.522 192.172,72.204 C191.697,70.885 191.460,69.347 191.460,67.590 C191.460,65.685 191.761,64.032 192.365,62.627 C192.968,61.224 193.867,60.064 195.064,59.148 C196.260,58.233 197.748,57.555 199.528,57.116 C201.308,56.676 203.374,56.457 205.728,56.457 L208.309,56.457 L208.309,54.479 C208.309,53.454 208.224,52.557 208.056,51.788 C207.888,51.019 207.611,50.378 207.226,49.865 C206.840,49.352 206.326,48.974 205.683,48.730 C205.040,48.486 204.245,48.363 203.295,48.363 C202.050,48.363 200.937,48.535 199.958,48.876 C198.979,49.218 198.114,49.597 197.363,50.011 C196.611,50.427 195.984,50.805 195.479,51.147 C194.975,51.489 194.564,51.659 194.248,51.659 C194.030,51.659 193.838,51.574 193.670,51.403 C193.502,51.233 193.363,50.988 193.255,50.671 C193.146,50.354 193.062,49.963 193.002,49.499 C192.943,49.035 192.913,48.523 192.913,47.961 C192.913,47.204 192.963,46.606 193.062,46.166 C193.160,45.727 193.348,45.330 193.625,44.976 C193.902,44.622 194.386,44.232 195.079,43.804 C195.771,43.377 196.581,42.980 197.511,42.614 C198.440,42.248 199.454,41.949 200.552,41.717 C201.649,41.485 202.781,41.369 203.948,41.369 C206.024,41.369 207.799,41.619 209.273,42.120 C210.746,42.620 211.957,43.389 212.906,44.427 C213.856,45.465 214.548,46.801 214.983,48.437 C215.417,50.073 215.635,52.014 215.635,54.259 L215.635,76.232 C215.635,76.574 215.536,76.843 215.339,77.038 C215.141,77.233 214.829,77.373 214.404,77.459 ZM208.309,62.243 L205.461,62.243 C204.254,62.243 203.226,62.353 202.376,62.572 C201.525,62.792 200.833,63.122 200.299,63.561 C199.766,64.001 199.375,64.532 199.128,65.154 C198.880,65.777 198.757,66.491 198.757,67.297 C198.757,68.664 199.108,69.738 199.810,70.519 C200.512,71.301 201.486,71.691 202.732,71.691 C203.780,71.691 204.744,71.362 205.624,70.702 C206.504,70.043 207.399,69.079 208.309,67.809 L208.309,62.243 ZM182.027,69.036 C182.482,69.928 183.292,70.373 184.459,70.373 C184.855,70.373 185.211,70.330 185.527,70.245 C185.843,70.159 186.125,70.061 186.373,69.952 C186.620,69.842 186.827,69.744 186.996,69.659 C187.163,69.573 187.317,69.530 187.455,69.530 C187.574,69.530 187.688,69.573 187.796,69.659 C187.905,69.744 187.989,69.915 188.049,70.171 C188.108,70.428 188.162,70.776 188.212,71.215 C188.261,71.654 188.286,72.216 188.286,72.900 C188.286,73.974 188.231,74.798 188.123,75.372 C188.014,75.945 187.871,76.348 187.693,76.580 C187.515,76.812 187.252,77.019 186.907,77.203 C186.560,77.386 186.155,77.544 185.690,77.679 C185.226,77.813 184.721,77.917 184.178,77.990 C183.633,78.063 183.085,78.100 182.531,78.100 C181.048,78.100 179.762,77.867 178.675,77.404 C177.587,76.941 176.688,76.226 175.976,75.262 C175.264,74.298 174.740,73.083 174.404,71.618 C174.067,70.153 173.899,68.420 173.899,66.418 L173.899,49.682 L170.725,49.682 C170.350,49.682 170.063,49.395 169.865,48.821 C169.667,48.248 169.569,47.289 169.569,45.946 C169.569,45.239 169.593,44.641 169.643,44.152 C169.692,43.664 169.766,43.279 169.865,42.998 C169.964,42.718 170.088,42.517 170.236,42.394 C170.384,42.272 170.557,42.211 170.755,42.211 L173.899,42.211 L173.899,34.924 C173.899,34.680 173.954,34.460 174.062,34.264 C174.171,34.069 174.369,33.904 174.656,33.770 C174.942,33.636 175.328,33.538 175.813,33.477 C176.297,33.416 176.895,33.385 177.607,33.385 C178.339,33.385 178.947,33.416 179.432,33.477 C179.916,33.538 180.296,33.636 180.574,33.770 C180.850,33.904 181.048,34.069 181.167,34.264 C181.285,34.460 181.345,34.680 181.345,34.924 L181.345,42.211 L187.099,42.211 C187.297,42.211 187.470,42.272 187.619,42.394 C187.767,42.517 187.890,42.718 187.989,42.998 C188.088,43.279 188.162,43.664 188.212,44.152 C188.261,44.641 188.286,45.239 188.286,45.946 C188.286,47.289 188.187,48.248 187.989,48.821 C187.791,49.395 187.505,49.682 187.129,49.682 L181.345,49.682 L181.345,65.026 C181.345,66.808 181.572,68.145 182.027,69.036 ZM172.567,3.735 C172.533,3.834 172.495,3.901 172.453,3.938 C172.411,3.974 172.365,3.992 172.314,3.992 C172.255,3.992 172.189,3.974 172.118,3.938 C172.046,3.901 171.957,3.862 171.852,3.821 C171.746,3.779 171.622,3.740 171.479,3.703 C171.335,3.667 171.166,3.649 170.972,3.649 C170.745,3.649 170.548,3.693 170.384,3.781 C170.219,3.870 170.082,4.011 169.973,4.203 C169.863,4.396 169.783,4.646 169.732,4.953 C169.681,5.261 169.656,5.638 169.656,6.086 L169.656,7.367 L171.719,7.367 C171.795,7.367 171.865,7.394 171.928,7.446 C171.991,7.498 172.044,7.584 172.086,7.703 C172.128,7.823 172.160,7.987 172.181,8.196 C172.202,8.404 172.213,8.659 172.213,8.961 C172.213,9.534 172.170,9.943 172.086,10.188 C172.002,10.433 171.879,10.555 171.719,10.555 L169.656,10.555 L169.656,21.836 C169.656,21.940 169.631,22.031 169.580,22.110 C169.530,22.188 169.445,22.253 169.327,22.305 C169.209,22.357 169.044,22.396 168.834,22.422 C168.623,22.448 168.365,22.461 168.061,22.461 C167.758,22.461 167.502,22.448 167.296,22.422 C167.089,22.396 166.924,22.357 166.802,22.305 C166.680,22.253 166.595,22.188 166.549,22.110 C166.503,22.031 166.479,21.940 166.479,21.836 L166.479,10.555 L165.062,10.555 C164.902,10.555 164.781,10.433 164.701,10.188 C164.621,9.943 164.581,9.534 164.581,8.961 C164.581,8.659 164.592,8.404 164.613,8.196 C164.634,7.987 164.663,7.823 164.701,7.703 C164.739,7.584 164.790,7.498 164.853,7.446 C164.916,7.394 164.990,7.367 165.075,7.367 L166.479,7.367 L166.479,6.196 C166.479,5.248 166.555,4.417 166.707,3.703 C166.859,2.990 167.097,2.396 167.422,1.922 C167.747,1.448 168.161,1.092 168.663,0.852 C169.165,0.612 169.757,0.492 170.441,0.492 C170.770,0.492 171.082,0.526 171.377,0.594 C171.673,0.662 171.905,0.735 172.074,0.813 C172.242,0.891 172.356,0.964 172.415,1.031 C172.474,1.099 172.523,1.198 172.561,1.328 C172.599,1.459 172.626,1.625 172.643,1.828 C172.660,2.031 172.668,2.284 172.668,2.586 C172.668,2.888 172.660,3.131 172.643,3.313 C172.626,3.495 172.601,3.636 172.567,3.735 ZM164.852,34.356 C164.872,34.783 164.882,35.314 164.882,35.949 C164.882,36.657 164.867,37.255 164.837,37.743 C164.808,38.232 164.758,38.635 164.689,38.952 C164.619,39.269 164.521,39.501 164.392,39.648 C164.263,39.794 164.091,39.867 163.873,39.867 C163.655,39.867 163.310,39.697 162.835,39.355 C162.360,39.013 161.777,38.641 161.085,38.238 C160.392,37.835 159.592,37.469 158.682,37.139 C157.772,36.810 156.774,36.645 155.686,36.645 C154.836,36.645 154.094,36.773 153.461,37.029 C152.828,37.286 152.300,37.640 151.874,38.091 C151.449,38.543 151.133,39.086 150.925,39.721 C150.718,40.356 150.614,41.027 150.614,41.735 C150.614,42.785 150.846,43.694 151.311,44.463 C151.775,45.232 152.398,45.916 153.180,46.514 C153.961,47.113 154.845,47.674 155.835,48.199 C156.823,48.724 157.832,49.279 158.860,49.865 C159.888,50.451 160.897,51.116 161.886,51.861 C162.874,52.606 163.755,53.497 164.526,54.534 C165.297,55.572 165.920,56.793 166.395,58.196 C166.869,59.600 167.106,61.254 167.106,63.158 C167.106,65.649 166.731,67.834 165.979,69.714 C165.228,71.594 164.209,73.162 162.924,74.419 C161.638,75.677 160.136,76.623 158.415,77.258 C156.695,77.892 154.856,78.210 152.898,78.210 C151.573,78.210 150.342,78.075 149.205,77.807 C148.067,77.538 147.064,77.215 146.194,76.836 C145.324,76.458 144.597,76.062 144.014,75.646 C143.430,75.231 143.010,74.865 142.753,74.548 C142.496,74.231 142.313,73.773 142.204,73.174 C142.095,72.576 142.041,71.716 142.041,70.592 C142.041,69.836 142.061,69.201 142.101,68.688 C142.140,68.175 142.204,67.761 142.293,67.443 C142.382,67.126 142.501,66.900 142.649,66.766 C142.798,66.632 142.970,66.564 143.168,66.564 C143.445,66.564 143.836,66.766 144.340,67.168 C144.844,67.571 145.492,68.017 146.283,68.505 C147.074,68.994 148.018,69.439 149.116,69.842 C150.213,70.245 151.484,70.446 152.928,70.446 C153.877,70.446 154.727,70.306 155.479,70.025 C156.230,69.744 156.868,69.347 157.392,68.835 C157.916,68.322 158.316,67.687 158.593,66.930 C158.870,66.174 159.008,65.332 159.008,64.404 C159.008,63.329 158.771,62.408 158.297,61.639 C157.822,60.870 157.204,60.186 156.443,59.588 C155.681,58.990 154.816,58.429 153.847,57.903 C152.878,57.379 151.879,56.823 150.851,56.237 C149.823,55.651 148.824,54.986 147.855,54.241 C146.886,53.497 146.021,52.606 145.260,51.568 C144.498,50.530 143.880,49.304 143.406,47.887 C142.931,46.472 142.694,44.775 142.694,42.797 C142.694,40.527 143.035,38.531 143.717,36.810 C144.399,35.088 145.319,33.660 146.476,32.525 C147.633,31.390 148.997,30.542 150.569,29.980 C152.141,29.418 153.807,29.137 155.568,29.137 C156.477,29.137 157.387,29.223 158.297,29.394 C159.206,29.565 160.056,29.797 160.848,30.090 C161.638,30.383 162.340,30.712 162.954,31.078 C163.566,31.445 163.972,31.750 164.170,31.994 C164.367,32.238 164.501,32.446 164.570,32.616 C164.639,32.787 164.699,33.014 164.748,33.294 C164.797,33.575 164.832,33.929 164.852,34.356 ZM161.809,20.508 C161.295,21.217 160.649,21.763 159.873,22.149 C159.097,22.534 158.190,22.727 157.152,22.727 C156.148,22.727 155.274,22.555 154.532,22.211 C153.789,21.867 153.173,21.367 152.684,20.711 C152.195,20.055 151.832,19.248 151.596,18.289 C151.359,17.331 151.241,16.237 151.241,15.008 C151.241,13.821 151.370,12.735 151.627,11.750 C151.885,10.766 152.271,9.922 152.785,9.219 C153.300,8.516 153.943,7.972 154.715,7.586 C155.488,7.201 156.392,7.008 157.430,7.008 C158.443,7.008 159.320,7.177 160.063,7.516 C160.805,7.854 161.419,8.352 161.904,9.008 C162.389,9.664 162.750,10.472 162.986,11.430 C163.222,12.388 163.341,13.487 163.341,14.727 C163.341,15.914 163.214,16.998 162.961,17.977 C162.708,18.956 162.324,19.800 161.809,20.508 ZM159.930,12.985 C159.841,12.406 159.691,11.904 159.481,11.477 C159.270,11.050 158.989,10.717 158.639,10.477 C158.289,10.237 157.848,10.117 157.316,10.117 C156.844,10.117 156.430,10.224 156.076,10.438 C155.722,10.651 155.431,10.964 155.203,11.375 C154.975,11.787 154.804,12.281 154.690,12.860 C154.576,13.438 154.519,14.097 154.519,14.836 C154.519,15.524 154.566,16.156 154.659,16.735 C154.751,17.313 154.901,17.815 155.108,18.242 C155.314,18.670 155.595,19.000 155.949,19.235 C156.304,19.469 156.742,19.586 157.266,19.586 C157.747,19.586 158.164,19.479 158.519,19.266 C158.873,19.052 159.164,18.742 159.392,18.336 C159.620,17.930 159.788,17.438 159.898,16.860 C160.008,16.281 160.063,15.623 160.063,14.883 C160.063,14.196 160.018,13.563 159.930,12.985 ZM142.015,20.508 C141.500,21.217 140.855,21.763 140.079,22.149 C139.302,22.534 138.395,22.727 137.357,22.727 C136.353,22.727 135.480,22.555 134.738,22.211 C133.995,21.867 133.379,21.367 132.890,20.711 C132.400,20.055 132.037,19.248 131.801,18.289 C131.565,17.331 131.447,16.237 131.447,15.008 C131.447,13.821 131.576,12.735 131.833,11.750 C132.090,10.766 132.476,9.922 132.991,9.219 C133.506,8.516 134.149,7.972 134.921,7.586 C135.693,7.201 136.598,7.008 137.636,7.008 C138.648,7.008 139.526,7.177 140.268,7.516 C141.011,7.854 141.625,8.352 142.110,9.008 C142.595,9.664 142.956,10.472 143.192,11.430 C143.428,12.388 143.546,13.487 143.546,14.727 C143.546,15.914 143.420,16.998 143.167,17.977 C142.914,18.956 142.529,19.800 142.015,20.508 ZM140.135,12.985 C140.047,12.406 139.897,11.904 139.686,11.477 C139.475,11.050 139.195,10.717 138.845,10.477 C138.494,10.237 138.054,10.117 137.522,10.117 C137.049,10.117 136.636,10.224 136.282,10.438 C135.927,10.651 135.636,10.964 135.408,11.375 C135.181,11.787 135.010,12.281 134.896,12.860 C134.782,13.438 134.725,14.097 134.725,14.836 C134.725,15.524 134.771,16.156 134.864,16.735 C134.957,17.313 135.107,17.815 135.313,18.242 C135.520,18.670 135.801,19.000 136.155,19.235 C136.509,19.469 136.948,19.586 137.471,19.586 C137.952,19.586 138.370,19.479 138.724,19.266 C139.079,19.052 139.370,18.742 139.598,18.336 C139.825,17.930 139.994,17.438 140.104,16.860 C140.213,16.281 140.268,15.623 140.268,14.883 C140.268,14.196 140.224,13.563 140.135,12.985 ZM127.346,5.274 C126.629,5.274 126.146,5.128 125.897,4.836 C125.648,4.545 125.524,4.019 125.524,3.258 C125.524,2.467 125.652,1.917 125.910,1.610 C126.167,1.302 126.654,1.149 127.372,1.149 C128.080,1.149 128.561,1.297 128.814,1.594 C129.068,1.891 129.194,2.420 129.194,3.180 C129.194,3.972 129.063,4.519 128.802,4.821 C128.540,5.123 128.055,5.274 127.346,5.274 ZM126.661,28.057 C126.750,28.363 126.814,28.753 126.854,29.229 C126.893,29.705 126.913,30.297 126.913,31.005 C126.913,31.713 126.893,32.281 126.854,32.708 C126.814,33.135 126.755,33.465 126.676,33.697 C126.596,33.929 126.507,34.088 126.409,34.173 C126.310,34.259 126.201,34.301 126.082,34.301 C125.944,34.301 125.790,34.259 125.623,34.173 C125.454,34.088 125.247,33.996 124.1000,33.898 C124.752,33.801 124.461,33.709 124.125,33.623 C123.788,33.538 123.393,33.495 122.938,33.495 C122.404,33.495 121.944,33.599 121.559,33.807 C121.173,34.014 120.852,34.344 120.595,34.795 C120.338,35.247 120.150,35.833 120.031,36.553 C119.913,37.274 119.853,38.159 119.853,39.208 L119.853,42.211 L124.688,42.211 C124.866,42.211 125.029,42.272 125.178,42.394 C125.326,42.517 125.449,42.718 125.549,42.998 C125.647,43.279 125.721,43.664 125.771,44.152 C125.820,44.641 125.845,45.239 125.845,45.946 C125.845,47.289 125.746,48.248 125.549,48.821 C125.351,49.395 125.064,49.682 124.688,49.682 L119.853,49.682 L119.853,76.122 C119.853,76.367 119.794,76.580 119.675,76.763 C119.557,76.946 119.359,77.099 119.082,77.221 C118.805,77.343 118.419,77.434 117.925,77.496 C117.431,77.556 116.828,77.587 116.116,77.587 C115.404,77.587 114.805,77.556 114.321,77.496 C113.836,77.434 113.451,77.343 113.164,77.221 C112.877,77.099 112.679,76.946 112.571,76.763 C112.462,76.580 112.408,76.367 112.408,76.122 L112.408,49.682 L109.085,49.682 C108.710,49.682 108.428,49.395 108.240,48.821 C108.052,48.248 107.958,47.289 107.958,45.946 C107.958,45.239 107.983,44.641 108.032,44.152 C108.082,43.664 108.151,43.279 108.240,42.998 C108.329,42.718 108.448,42.517 108.596,42.394 C108.744,42.272 108.917,42.211 109.115,42.211 L112.408,42.211 L112.408,39.465 C112.408,37.243 112.586,35.296 112.942,33.623 C113.298,31.952 113.856,30.560 114.618,29.449 C115.379,28.338 116.348,27.502 117.525,26.940 C118.701,26.379 120.091,26.098 121.692,26.098 C122.464,26.098 123.195,26.177 123.887,26.336 C124.579,26.495 125.123,26.665 125.519,26.849 C125.914,27.032 126.181,27.203 126.320,27.361 C126.458,27.520 126.572,27.752 126.661,28.057 ZM122.252,22.305 C122.130,22.357 121.967,22.396 121.765,22.422 C121.562,22.448 121.305,22.461 120.993,22.461 C120.681,22.461 120.423,22.448 120.221,22.422 C120.018,22.396 119.856,22.357 119.734,22.305 C119.611,22.253 119.525,22.188 119.474,22.110 C119.424,22.031 119.398,21.940 119.398,21.836 L119.398,1.289 C119.398,1.185 119.424,1.092 119.474,1.008 C119.525,0.925 119.611,0.854 119.734,0.797 C119.856,0.740 120.018,0.696 120.221,0.664 C120.423,0.633 120.681,0.617 120.993,0.617 C121.305,0.617 121.562,0.633 121.765,0.664 C121.967,0.696 122.130,0.740 122.252,0.797 C122.374,0.854 122.461,0.925 122.512,1.008 C122.562,1.092 122.588,1.185 122.588,1.289 L122.588,21.836 C122.588,21.940 122.562,22.031 122.512,22.110 C122.461,22.188 122.374,22.253 122.252,22.305 ZM115.348,20.508 C114.833,21.217 114.188,21.763 113.412,22.149 C112.635,22.534 111.729,22.727 110.691,22.727 C109.687,22.727 108.813,22.555 108.071,22.211 C107.328,21.867 106.712,21.367 106.223,20.711 C105.734,20.055 105.371,19.248 105.135,18.289 C104.898,17.331 104.780,16.237 104.780,15.008 C104.780,13.821 104.909,12.735 105.166,11.750 C105.424,10.766 105.810,9.922 106.324,9.219 C106.839,8.516 107.482,7.972 108.254,7.586 C109.026,7.201 109.931,7.008 110.969,7.008 C111.982,7.008 112.859,7.177 113.602,7.516 C114.344,7.854 114.958,8.352 115.443,9.008 C115.928,9.664 116.289,10.472 116.525,11.430 C116.761,12.388 116.880,13.487 116.880,14.727 C116.880,15.914 116.753,16.998 116.500,17.977 C116.247,18.956 115.863,19.800 115.348,20.508 ZM113.469,12.985 C113.380,12.406 113.230,11.904 113.019,11.477 C112.808,11.050 112.528,10.717 112.178,10.477 C111.828,10.237 111.387,10.117 110.855,10.117 C110.383,10.117 109.969,10.224 109.615,10.438 C109.261,10.651 108.969,10.964 108.742,11.375 C108.514,11.787 108.343,12.281 108.229,12.860 C108.115,13.438 108.058,14.097 108.058,14.836 C108.058,15.524 108.104,16.156 108.197,16.735 C108.290,17.313 108.440,17.815 108.647,18.242 C108.853,18.670 109.134,19.000 109.488,19.235 C109.843,19.469 110.281,19.586 110.805,19.586 C111.286,19.586 111.703,19.479 112.058,19.266 C112.412,19.052 112.703,18.742 112.931,18.336 C113.159,17.930 113.327,17.438 113.437,16.860 C113.547,16.281 113.602,15.623 113.602,14.883 C113.602,14.196 113.557,13.563 113.469,12.985 ZM105.259,58.837 C105.259,59.960 105.056,60.791 104.651,61.327 C104.245,61.865 103.687,62.133 102.975,62.133 L86.868,62.133 C86.868,63.525 87.001,64.788 87.268,65.923 C87.535,67.059 87.960,68.023 88.544,68.816 C89.127,69.610 89.879,70.214 90.798,70.629 C91.718,71.045 92.820,71.252 94.106,71.252 C95.411,71.252 96.557,71.136 97.547,70.904 C98.535,70.672 99.390,70.416 100.112,70.135 C100.834,69.854 101.432,69.598 101.907,69.366 C102.382,69.134 102.767,69.018 103.064,69.018 C103.242,69.018 103.390,69.061 103.509,69.146 C103.627,69.232 103.726,69.384 103.805,69.604 C103.884,69.823 103.939,70.135 103.969,70.538 C103.998,70.940 104.013,71.447 104.013,72.057 C104.013,72.595 104.003,73.052 103.983,73.431 C103.964,73.809 103.934,74.133 103.894,74.401 C103.855,74.670 103.795,74.895 103.716,75.079 C103.637,75.262 103.533,75.439 103.405,75.610 C103.276,75.781 102.925,76.012 102.352,76.305 C101.778,76.598 101.047,76.886 100.157,77.166 C99.267,77.446 98.248,77.691 97.102,77.898 C95.954,78.106 94.729,78.210 93.423,78.210 C91.070,78.210 89.008,77.843 87.239,77.111 C85.469,76.379 83.991,75.268 82.804,73.779 C81.617,72.290 80.732,70.409 80.149,68.139 C79.566,65.868 79.274,63.208 79.274,60.155 C79.274,57.250 79.580,54.632 80.194,52.300 C80.806,49.969 81.696,47.992 82.863,46.368 C84.030,44.744 85.449,43.505 87.120,42.651 C88.791,41.796 90.674,41.369 92.771,41.369 C94.985,41.369 96.879,41.772 98.451,42.577 C100.023,43.383 101.314,44.500 102.322,45.928 C103.331,47.356 104.072,49.047 104.547,51.000 C105.022,52.954 105.259,55.078 105.259,57.372 L105.259,58.837 ZM96.760,50.103 C95.860,48.626 94.471,47.887 92.593,47.887 C91.644,47.887 90.818,48.107 90.116,48.547 C89.414,48.986 88.830,49.578 88.366,50.323 C87.901,51.068 87.545,51.947 87.298,52.959 C87.050,53.973 86.907,55.053 86.868,56.200 L98.021,56.200 C98.080,53.613 97.660,51.580 96.760,50.103 ZM104.363,3.735 C104.329,3.834 104.293,3.901 104.255,3.938 C104.217,3.974 104.173,3.992 104.122,3.992 C104.063,3.992 103.960,3.959 103.812,3.891 C103.664,3.823 103.504,3.766 103.331,3.719 C103.158,3.672 102.979,3.649 102.793,3.649 C102.557,3.649 102.354,3.693 102.186,3.781 C102.017,3.870 101.880,4.011 101.774,4.203 C101.669,4.396 101.589,4.646 101.534,4.953 C101.479,5.261 101.452,5.638 101.452,6.086 L101.452,7.367 L103.515,7.367 C103.591,7.367 103.660,7.394 103.723,7.446 C103.787,7.498 103.842,7.584 103.888,7.703 C103.934,7.823 103.968,7.987 103.989,8.196 C104.010,8.404 104.021,8.659 104.021,8.961 C104.021,9.534 103.977,9.943 103.888,10.188 C103.799,10.433 103.679,10.555 103.527,10.555 L101.452,10.555 L101.452,21.836 C101.452,21.940 101.426,22.031 101.376,22.110 C101.325,22.188 101.241,22.253 101.123,22.305 C101.004,22.357 100.842,22.396 100.635,22.422 C100.428,22.448 100.169,22.461 99.857,22.461 C99.553,22.461 99.298,22.448 99.091,22.422 C98.884,22.396 98.720,22.357 98.598,22.305 C98.475,22.253 98.391,22.188 98.345,22.110 C98.298,22.031 98.275,21.940 98.275,21.836 L98.275,10.555 L93.174,10.555 L93.174,17.102 C93.174,17.862 93.271,18.433 93.466,18.813 C93.660,19.193 94.005,19.383 94.503,19.383 C94.672,19.383 94.824,19.365 94.959,19.328 C95.094,19.292 95.214,19.250 95.320,19.203 C95.425,19.156 95.514,19.115 95.585,19.078 C95.657,19.042 95.723,19.024 95.782,19.024 C95.832,19.024 95.881,19.042 95.927,19.078 C95.973,19.115 96.009,19.188 96.035,19.297 C96.060,19.406 96.083,19.555 96.104,19.742 C96.125,19.930 96.136,20.170 96.136,20.461 C96.136,20.920 96.113,21.271 96.066,21.516 C96.020,21.761 95.959,21.933 95.883,22.031 C95.807,22.131 95.695,22.219 95.548,22.297 C95.400,22.375 95.227,22.443 95.029,22.500 C94.830,22.557 94.615,22.602 94.383,22.633 C94.151,22.664 93.917,22.680 93.681,22.680 C93.048,22.680 92.499,22.581 92.035,22.383 C91.571,22.185 91.187,21.881 90.884,21.469 C90.580,21.058 90.356,20.539 90.213,19.914 C90.069,19.289 89.998,18.550 89.998,17.696 L89.998,10.555 L88.644,10.555 C88.483,10.555 88.361,10.433 88.276,10.188 C88.192,9.943 88.150,9.534 88.150,8.961 C88.150,8.659 88.160,8.404 88.182,8.196 C88.203,7.987 88.234,7.823 88.276,7.703 C88.319,7.584 88.371,7.498 88.435,7.446 C88.498,7.394 88.572,7.367 88.656,7.367 L89.998,7.367 L89.998,4.258 C89.998,4.154 90.021,4.060 90.067,3.977 C90.114,3.894 90.198,3.823 90.320,3.766 C90.443,3.709 90.607,3.667 90.814,3.641 C91.021,3.615 91.276,3.602 91.580,3.602 C91.892,3.602 92.151,3.615 92.358,3.641 C92.565,3.667 92.727,3.709 92.845,3.766 C92.963,3.823 93.048,3.894 93.099,3.977 C93.149,4.060 93.174,4.154 93.174,4.258 L93.174,7.367 L98.275,7.367 L98.275,6.196 C98.275,5.248 98.353,4.417 98.509,3.703 C98.665,2.990 98.906,2.396 99.230,1.922 C99.555,1.448 99.967,1.092 100.464,0.852 C100.962,0.612 101.557,0.492 102.249,0.492 C102.570,0.492 102.880,0.526 103.179,0.594 C103.479,0.662 103.711,0.735 103.875,0.813 C104.040,0.891 104.154,0.964 104.217,1.031 C104.280,1.099 104.329,1.198 104.363,1.328 C104.396,1.459 104.422,1.625 104.439,1.828 C104.455,2.031 104.464,2.284 104.464,2.586 C104.464,2.888 104.455,3.131 104.439,3.313 C104.422,3.495 104.396,3.636 104.363,3.735 ZM87.391,10.680 C87.357,10.815 87.312,10.909 87.258,10.961 C87.203,11.013 87.133,11.039 87.049,11.039 C86.981,11.039 86.905,11.021 86.821,10.985 C86.737,10.948 86.642,10.909 86.536,10.867 C86.431,10.826 86.315,10.787 86.188,10.750 C86.062,10.714 85.922,10.696 85.771,10.696 C85.593,10.696 85.416,10.740 85.239,10.828 C85.062,10.917 84.878,11.055 84.688,11.242 C84.499,11.430 84.300,11.680 84.094,11.992 C83.887,12.305 83.665,12.690 83.429,13.149 L83.429,21.836 C83.429,21.940 83.404,22.031 83.353,22.110 C83.303,22.188 83.216,22.253 83.094,22.305 C82.971,22.357 82.809,22.396 82.607,22.422 C82.404,22.448 82.147,22.461 81.834,22.461 C81.522,22.461 81.265,22.448 81.062,22.422 C80.860,22.396 80.697,22.357 80.575,22.305 C80.453,22.253 80.366,22.188 80.316,22.110 C80.265,22.031 80.240,21.940 80.240,21.836 L80.240,7.899 C80.240,7.795 80.261,7.703 80.303,7.625 C80.345,7.547 80.421,7.482 80.531,7.430 C80.640,7.378 80.782,7.339 80.955,7.313 C81.128,7.287 81.345,7.274 81.607,7.274 C81.877,7.274 82.100,7.287 82.277,7.313 C82.455,7.339 82.592,7.378 82.689,7.430 C82.786,7.482 82.855,7.547 82.898,7.625 C82.940,7.703 82.961,7.795 82.961,7.899 L82.961,9.633 C83.256,9.112 83.535,8.683 83.796,8.344 C84.058,8.006 84.307,7.737 84.543,7.539 C84.779,7.342 85.015,7.203 85.252,7.125 C85.488,7.047 85.724,7.008 85.960,7.008 C86.070,7.008 86.188,7.016 86.315,7.031 C86.441,7.047 86.572,7.073 86.707,7.110 C86.842,7.146 86.960,7.188 87.062,7.235 C87.163,7.281 87.237,7.331 87.283,7.383 C87.329,7.435 87.363,7.492 87.384,7.555 C87.405,7.617 87.424,7.703 87.441,7.813 C87.458,7.922 87.471,8.086 87.479,8.305 C87.487,8.524 87.492,8.821 87.492,9.196 C87.492,9.571 87.483,9.878 87.467,10.117 C87.449,10.357 87.424,10.545 87.391,10.680 ZM76.190,20.508 C75.675,21.217 75.030,21.763 74.253,22.149 C73.477,22.534 72.570,22.727 71.532,22.727 C70.528,22.727 69.655,22.555 68.912,22.211 C68.170,21.867 67.554,21.367 67.065,20.711 C66.575,20.055 66.212,19.248 65.976,18.289 C65.740,17.331 65.622,16.237 65.622,15.008 C65.622,13.821 65.750,12.735 66.008,11.750 C66.265,10.766 66.651,9.922 67.166,9.219 C67.680,8.516 68.324,7.972 69.096,7.586 C69.868,7.201 70.773,7.008 71.811,7.008 C72.823,7.008 73.701,7.177 74.443,7.516 C75.186,7.854 75.799,8.352 76.285,9.008 C76.770,9.664 77.130,10.472 77.367,11.430 C77.603,12.388 77.721,13.487 77.721,14.727 C77.721,15.914 77.595,16.998 77.341,17.977 C77.088,18.956 76.704,19.800 76.190,20.508 ZM74.310,12.985 C74.222,12.406 74.072,11.904 73.861,11.477 C73.650,11.050 73.369,10.717 73.019,10.477 C72.669,10.237 72.228,10.117 71.697,10.117 C71.224,10.117 70.811,10.224 70.456,10.438 C70.102,10.651 69.811,10.964 69.583,11.375 C69.355,11.787 69.185,12.281 69.071,12.860 C68.957,13.438 68.900,14.097 68.900,14.836 C68.900,15.524 68.946,16.156 69.039,16.735 C69.132,17.313 69.281,17.815 69.488,18.242 C69.695,18.670 69.976,19.000 70.330,19.235 C70.684,19.469 71.123,19.586 71.646,19.586 C72.127,19.586 72.545,19.479 72.899,19.266 C73.254,19.052 73.545,18.742 73.772,18.336 C74.000,17.930 74.169,17.438 74.279,16.860 C74.388,16.281 74.443,15.623 74.443,14.883 C74.443,14.196 74.399,13.563 74.310,12.985 ZM62.648,13.516 C62.099,14.115 61.426,14.571 60.629,14.883 C59.832,15.196 58.893,15.352 57.813,15.352 L56.446,15.352 L56.446,21.805 C56.446,21.909 56.419,22.003 56.364,22.086 C56.309,22.170 56.218,22.237 56.092,22.289 C55.965,22.342 55.796,22.383 55.585,22.414 C55.374,22.446 55.104,22.461 54.775,22.461 C54.455,22.461 54.187,22.446 53.972,22.414 C53.757,22.383 53.586,22.342 53.459,22.289 C53.333,22.237 53.244,22.170 53.193,22.086 C53.143,22.003 53.117,21.909 53.117,21.805 L53.117,3.617 C53.117,3.128 53.221,2.761 53.428,2.516 C53.634,2.271 53.906,2.149 54.244,2.149 L58.104,2.149 C58.492,2.149 58.861,2.167 59.211,2.203 C59.561,2.240 59.981,2.318 60.471,2.438 C60.960,2.558 61.456,2.779 61.958,3.102 C62.460,3.425 62.888,3.834 63.242,4.328 C63.597,4.823 63.867,5.401 64.052,6.063 C64.238,6.724 64.331,7.467 64.331,8.289 C64.331,9.425 64.187,10.430 63.901,11.305 C63.614,12.180 63.196,12.917 62.648,13.516 ZM60.547,6.836 C60.344,6.378 60.095,6.039 59.800,5.821 C59.504,5.602 59.194,5.464 58.870,5.406 C58.545,5.349 58.209,5.321 57.864,5.321 L56.446,5.321 L56.446,12.180 L57.939,12.180 C58.471,12.180 58.916,12.092 59.275,11.914 C59.633,11.737 59.926,11.490 60.154,11.172 C60.382,10.854 60.555,10.474 60.673,10.031 C60.791,9.589 60.850,9.107 60.850,8.586 C60.850,7.878 60.749,7.295 60.547,6.836 ZM47.090,73.009 C45.883,74.670 44.370,75.952 42.551,76.855 C40.732,77.758 38.606,78.210 36.174,78.210 C33.820,78.210 31.773,77.807 30.033,77.001 C28.293,76.196 26.849,75.024 25.703,73.486 C24.555,71.947 23.705,70.056 23.152,67.809 C22.598,65.563 22.321,62.1000 22.321,60.119 C22.321,57.336 22.622,54.790 23.226,52.483 C23.829,50.176 24.733,48.199 25.940,46.551 C27.146,44.903 28.654,43.627 30.463,42.724 C32.273,41.821 34.394,41.369 36.826,41.369 C39.199,41.369 41.256,41.766 42.996,42.559 C44.736,43.353 46.175,44.518 47.312,46.056 C48.449,47.594 49.294,49.487 49.848,51.733 C50.402,53.979 50.679,56.555 50.679,59.460 C50.679,62.243 50.382,64.782 49.789,67.077 C49.196,69.372 48.296,71.350 47.090,73.009 ZM42.685,55.376 C42.477,54.021 42.126,52.844 41.632,51.842 C41.137,50.842 40.479,50.061 39.659,49.499 C38.838,48.937 37.805,48.656 36.559,48.656 C35.452,48.656 34.483,48.907 33.652,49.407 C32.822,49.908 32.139,50.640 31.606,51.604 C31.072,52.569 30.671,53.728 30.404,55.083 C30.137,56.438 30.004,57.983 30.004,59.716 C30.004,61.327 30.112,62.811 30.330,64.165 C30.547,65.520 30.898,66.699 31.383,67.699 C31.867,68.701 32.525,69.476 33.356,70.025 C34.186,70.574 35.214,70.849 36.441,70.849 C37.568,70.849 38.547,70.599 39.377,70.098 C40.208,69.598 40.890,68.871 41.424,67.919 C41.958,66.967 42.353,65.813 42.611,64.458 C42.867,63.103 42.996,61.560 42.996,59.826 C42.996,58.215 42.892,56.731 42.685,55.376 ZM43.473,15.867 L36.601,15.867 C36.601,16.461 36.658,17.000 36.772,17.485 C36.886,17.969 37.067,18.381 37.316,18.719 C37.565,19.058 37.886,19.315 38.278,19.492 C38.670,19.670 39.141,19.758 39.689,19.758 C40.246,19.758 40.735,19.709 41.157,19.610 C41.579,19.511 41.944,19.401 42.252,19.281 C42.560,19.162 42.815,19.052 43.018,18.953 C43.220,18.854 43.385,18.805 43.511,18.805 C43.587,18.805 43.651,18.823 43.701,18.860 C43.752,18.896 43.794,18.961 43.828,19.055 C43.861,19.149 43.885,19.281 43.897,19.453 C43.910,19.625 43.916,19.842 43.916,20.102 C43.916,20.331 43.912,20.526 43.904,20.688 C43.895,20.849 43.883,20.987 43.866,21.102 C43.849,21.217 43.823,21.313 43.790,21.391 C43.756,21.469 43.712,21.545 43.657,21.617 C43.602,21.690 43.452,21.789 43.208,21.914 C42.963,22.039 42.651,22.162 42.271,22.281 C41.891,22.401 41.457,22.505 40.967,22.594 C40.478,22.682 39.955,22.727 39.398,22.727 C38.394,22.727 37.514,22.571 36.759,22.258 C36.004,21.946 35.373,21.472 34.867,20.836 C34.361,20.201 33.983,19.399 33.734,18.430 C33.485,17.461 33.361,16.326 33.361,15.024 C33.361,13.784 33.492,12.667 33.753,11.672 C34.015,10.677 34.394,9.834 34.892,9.141 C35.390,8.448 35.996,7.920 36.709,7.555 C37.422,7.190 38.225,7.008 39.120,7.008 C40.064,7.008 40.873,7.180 41.543,7.524 C42.214,7.867 42.765,8.344 43.195,8.953 C43.625,9.563 43.942,10.284 44.144,11.117 C44.347,11.951 44.448,12.857 44.448,13.836 L44.448,14.461 C44.448,14.940 44.361,15.295 44.188,15.524 C44.015,15.753 43.777,15.867 43.473,15.867 ZM40.822,10.735 C40.438,10.104 39.845,9.789 39.044,9.789 C38.639,9.789 38.286,9.883 37.987,10.071 C37.687,10.258 37.438,10.511 37.240,10.828 C37.042,11.146 36.890,11.521 36.785,11.953 C36.679,12.386 36.618,12.847 36.601,13.336 L41.360,13.336 C41.385,12.232 41.206,11.365 40.822,10.735 ZM30.564,22.305 C30.446,22.357 30.283,22.396 30.077,22.422 C29.870,22.448 29.615,22.461 29.311,22.461 C28.999,22.461 28.739,22.448 28.533,22.422 C28.326,22.396 28.163,22.357 28.045,22.305 C27.927,22.253 27.843,22.188 27.792,22.110 C27.742,22.031 27.716,21.940 27.716,21.836 L27.716,13.883 C27.716,13.206 27.676,12.675 27.596,12.289 C27.516,11.904 27.400,11.573 27.248,11.297 C27.096,11.021 26.900,10.808 26.660,10.656 C26.419,10.506 26.138,10.430 25.818,10.430 C25.413,10.430 25.004,10.612 24.590,10.977 C24.177,11.342 23.746,11.873 23.299,12.571 L23.299,21.836 C23.299,21.940 23.274,22.031 23.223,22.110 C23.173,22.188 23.086,22.253 22.964,22.305 C22.842,22.357 22.679,22.396 22.477,22.422 C22.274,22.448 22.017,22.461 21.705,22.461 C21.392,22.461 21.135,22.448 20.933,22.422 C20.730,22.396 20.568,22.357 20.445,22.305 C20.323,22.253 20.236,22.188 20.186,22.110 C20.135,22.031 20.110,21.940 20.110,21.836 L20.110,1.289 C20.110,1.185 20.135,1.092 20.186,1.008 C20.236,0.925 20.323,0.854 20.445,0.797 C20.568,0.740 20.730,0.696 20.933,0.664 C21.135,0.633 21.392,0.617 21.705,0.617 C22.017,0.617 22.274,0.633 22.477,0.664 C22.679,0.696 22.842,0.740 22.964,0.797 C23.086,0.854 23.173,0.925 23.223,1.008 C23.274,1.092 23.299,1.185 23.299,1.289 L23.299,8.992 C23.848,8.326 24.407,7.828 24.976,7.500 C25.546,7.172 26.138,7.008 26.754,7.008 C27.522,7.008 28.170,7.164 28.697,7.477 C29.224,7.789 29.651,8.217 29.975,8.758 C30.300,9.300 30.534,9.933 30.678,10.656 C30.821,11.381 30.893,12.258 30.893,13.289 L30.893,21.836 C30.893,21.940 30.868,22.031 30.817,22.110 C30.766,22.188 30.682,22.253 30.564,22.305 ZM18.237,5.125 C18.194,5.256 18.142,5.352 18.079,5.414 C18.015,5.477 17.946,5.508 17.870,5.508 L13.769,5.508 L13.769,21.805 C13.769,21.909 13.742,22.003 13.687,22.086 C13.632,22.170 13.541,22.237 13.415,22.289 C13.288,22.342 13.117,22.383 12.902,22.414 C12.687,22.446 12.419,22.461 12.099,22.461 C11.778,22.461 11.510,22.446 11.295,22.414 C11.080,22.383 10.909,22.342 10.782,22.289 C10.656,22.237 10.565,22.170 10.510,22.086 C10.455,22.003 10.428,21.909 10.428,21.805 L10.428,5.508 L6.327,5.508 C6.243,5.508 6.171,5.477 6.112,5.414 C6.053,5.352 6.002,5.256 5.960,5.125 C5.918,4.995 5.886,4.823 5.865,4.610 C5.844,4.396 5.834,4.138 5.834,3.836 C5.834,3.524 5.844,3.258 5.865,3.039 C5.886,2.821 5.918,2.646 5.960,2.516 C6.002,2.386 6.053,2.292 6.112,2.235 C6.171,2.177 6.243,2.149 6.327,2.149 L17.870,2.149 C17.946,2.149 18.015,2.177 18.079,2.235 C18.142,2.292 18.194,2.386 18.237,2.516 C18.279,2.646 18.311,2.821 18.332,3.039 C18.353,3.258 18.363,3.524 18.363,3.836 C18.363,4.138 18.353,4.396 18.332,4.610 C18.311,4.823 18.279,4.995 18.237,5.125 ZM7.415,68.523 C7.682,68.072 7.885,67.468 8.023,66.711 C8.161,65.954 8.231,64.977 8.231,63.781 L8.231,31.225 C8.231,30.981 8.295,30.767 8.424,30.584 C8.552,30.401 8.760,30.249 9.047,30.126 C9.333,30.004 9.734,29.913 10.248,29.852 C10.762,29.791 11.395,29.760 12.147,29.760 C12.898,29.760 13.521,29.791 14.015,29.852 C14.509,29.913 14.910,30.004 15.217,30.126 C15.523,30.249 15.740,30.401 15.869,30.584 C15.998,30.767 16.062,30.981 16.062,31.225 L16.062,64.184 C16.062,66.332 15.899,68.267 15.573,69.988 C15.246,71.709 14.692,73.174 13.911,74.383 C13.130,75.591 12.107,76.513 10.841,77.148 C9.576,77.782 8.013,78.100 6.155,78.100 C5.561,78.100 4.973,78.045 4.390,77.935 C3.806,77.825 3.272,77.684 2.788,77.514 C2.303,77.343 1.883,77.160 1.527,76.965 C1.171,76.769 0.934,76.593 0.815,76.434 C0.697,76.275 0.597,76.110 0.519,75.939 C0.439,75.769 0.370,75.543 0.311,75.262 C0.252,74.981 0.212,74.633 0.192,74.218 C0.172,73.803 0.163,73.278 0.163,72.643 C0.163,71.814 0.177,71.111 0.207,70.538 C0.237,69.964 0.286,69.512 0.355,69.183 C0.425,68.853 0.523,68.621 0.652,68.487 C0.780,68.353 0.944,68.285 1.142,68.285 C1.320,68.285 1.527,68.365 1.764,68.523 C2.002,68.682 2.269,68.847 2.565,69.018 C2.862,69.189 3.208,69.354 3.604,69.512 C3.999,69.671 4.464,69.750 4.998,69.750 C5.532,69.750 6.001,69.659 6.407,69.476 C6.812,69.292 7.148,68.975 7.415,68.523 ZM55.247,69.183 C55.326,68.926 55.425,68.756 55.544,68.670 C55.662,68.585 55.811,68.542 55.989,68.542 C56.206,68.542 56.527,68.694 56.953,68.999 C57.378,69.305 57.906,69.640 58.540,70.007 C59.172,70.373 59.909,70.715 60.749,71.032 C61.590,71.350 62.544,71.508 63.612,71.508 C64.284,71.508 64.882,71.423 65.407,71.252 C65.930,71.081 66.385,70.837 66.771,70.519 C67.157,70.202 67.448,69.799 67.646,69.311 C67.844,68.823 67.943,68.261 67.943,67.626 C67.943,66.894 67.760,66.265 67.394,65.740 C67.028,65.215 66.544,64.758 65.941,64.367 C65.337,63.977 64.655,63.610 63.894,63.268 C63.132,62.927 62.351,62.548 61.550,62.133 C60.749,61.718 59.968,61.242 59.207,60.705 C58.446,60.168 57.763,59.509 57.160,58.727 C56.557,57.946 56.072,57.006 55.707,55.907 C55.341,54.809 55.158,53.490 55.158,51.952 C55.158,50.390 55.405,48.956 55.900,47.649 C56.394,46.344 57.106,45.227 58.035,44.299 C58.965,43.371 60.097,42.651 61.432,42.138 C62.767,41.625 64.265,41.369 65.926,41.369 C66.756,41.369 67.562,41.442 68.343,41.589 C69.124,41.735 69.831,41.918 70.464,42.138 C71.097,42.358 71.631,42.596 72.066,42.852 C72.501,43.108 72.812,43.328 73.000,43.511 C73.188,43.694 73.322,43.877 73.401,44.061 C73.480,44.244 73.539,44.463 73.579,44.720 C73.618,44.976 73.653,45.294 73.683,45.672 C73.712,46.051 73.727,46.520 73.727,47.082 C73.727,47.741 73.712,48.278 73.683,48.693 C73.653,49.108 73.603,49.438 73.534,49.682 C73.465,49.926 73.371,50.091 73.252,50.176 C73.134,50.262 72.995,50.304 72.837,50.304 C72.659,50.304 72.382,50.176 72.007,49.920 C71.631,49.664 71.161,49.389 70.598,49.096 C70.034,48.803 69.381,48.528 68.640,48.272 C67.898,48.016 67.053,47.887 66.104,47.887 C65.431,47.887 64.848,47.973 64.354,48.144 C63.859,48.315 63.453,48.559 63.137,48.876 C62.821,49.194 62.584,49.566 62.425,49.993 C62.267,50.421 62.188,50.878 62.188,51.366 C62.188,52.123 62.376,52.758 62.752,53.271 C63.127,53.783 63.622,54.235 64.235,54.626 C64.848,55.017 65.545,55.383 66.326,55.724 C67.107,56.066 67.898,56.438 68.699,56.841 C69.500,57.244 70.291,57.714 71.072,58.251 C71.853,58.788 72.550,59.448 73.163,60.229 C73.776,61.010 74.271,61.944 74.647,63.030 C75.022,64.117 75.210,65.405 75.210,66.894 C75.210,68.749 74.928,70.385 74.365,71.801 C73.801,73.217 73.005,74.401 71.977,75.353 C70.949,76.305 69.732,77.019 68.328,77.496 C66.924,77.972 65.402,78.210 63.760,78.210 C62.771,78.210 61.827,78.118 60.927,77.935 C60.027,77.752 59.222,77.520 58.510,77.239 C57.798,76.959 57.205,76.672 56.730,76.379 C56.256,76.086 55.909,75.811 55.692,75.555 C55.474,75.298 55.306,74.895 55.188,74.346 C55.069,73.797 55.010,72.985 55.010,71.911 C55.010,71.203 55.029,70.635 55.069,70.208 C55.108,69.781 55.168,69.439 55.247,69.183 ZM126.100,22.305 C125.977,22.253 125.891,22.188 125.840,22.110 C125.790,22.031 125.764,21.940 125.764,21.836 L125.764,7.930 C125.764,7.826 125.790,7.735 125.840,7.656 C125.891,7.578 125.977,7.511 126.100,7.453 C126.222,7.396 126.384,7.352 126.587,7.321 C126.789,7.289 127.047,7.274 127.359,7.274 C127.671,7.274 127.929,7.289 128.131,7.321 C128.334,7.352 128.496,7.396 128.618,7.453 C128.741,7.511 128.827,7.578 128.878,7.656 C128.928,7.735 128.954,7.826 128.954,7.930 L128.954,21.836 C128.954,21.940 128.928,22.031 128.878,22.110 C128.827,22.188 128.741,22.253 128.618,22.305 C128.496,22.357 128.334,22.396 128.131,22.422 C127.929,22.448 127.671,22.461 127.359,22.461 C127.047,22.461 126.789,22.448 126.587,22.422 C126.384,22.396 126.222,22.357 126.100,22.305 Z"/>
</svg>